<svg width="642" height="734" fill="none" xmlns="http://www.w3.org/2000/svg"><path d="M228.8 320a84.2 84.2 0 00-.5-96.6c-2-2.7-4.2-5.4-5.1-8.7-1.7-6.3 1.9-12.6 4.7-18.4 11.4-23.2 15.3-52.3-17.5-71.3 3-17.2 7-34-.3-49.9a47 47 0 00-12.4-17.3c-15.7-12.6-41-6.6-53.3 9.4-12.3 16-19 36.8-13 56 6 19.1 11.7 33.5 32.4 49.3a59.2 59.2 0 00-21.3 38.6c-.6 24.5 4 35.3 15.5 56.9-17.1 1.6-29 20-28.5 37.2.6 17.2 10.7 32.7 22.5 45.2 12.8 13.5 32.8 25.1 49 16 18.8-10.6 16.6-40 32.4-54.7M97.7 159.2a56.8 56.8 0 0112.3 30.6c2.1 14-4 30-17 36a35.7 35.7 0 014 62.8 78.4 78.4 0 0118 69c-3.4 15.2-14.5 31-30 31.1-9.3 0-17.8-5.7-23.7-12.9-18.8-23-14-58.4 2.3-83.3a36.8 36.8 0 012.3-67.5 83.3 83.3 0 01-12.3-45.4c.2-9.7 2-20.6 9.6-26.8 18.9-15.5 34.5 6.4 34.5 6.4z" fill="#B8DDF0"/><path d="M88 388c-.5 14-.4 28 .2 41.9.1 3.2 5.1 3.2 5 0-.6-14-.7-28-.3-41.9.1-3.2-4.9-3.2-5 0zM187.4 370.8a287 287 0 00-.2 43c.3 3.2 5.3 3.3 5 0-1-14.3-1-28.7.2-43 .3-3.2-4.7-3.2-5 0zM292.4 196.8c1.8-.1 2.7-2.2 3-4a58.7 58.7 0 001.4-28.3c-2.6-9.2-10.3-17.6-19.8-18-8.7-.3-16.5 6.1-20.3 14a60.3 60.3 0 00-4.6 25.3c-.3 9.9 0 20.2 4.6 29s14.7 15.4 24.3 12.9c10.9-3 16-16 15-27-.3-2.8-.8-5.8.4-8.4" fill="#B8DDF0"/><path d="M296.7 262c-5.4-2.9-12-2.8-18-1.6-7.1 1.4-14 4.5-18.8 9.9a48.8 48.8 0 00-9 23.4l-9.7 49.6c-2.2 11-4.2 23 1.1 32.8 4.3 8 12.8 13.1 21.7 14.8 8.9 1.6 18.1.1 26.7-2.5 8-2.5 16-6.2 21.3-12.7 4.1-5 6.3-11.3 7.5-17.6a70.7 70.7 0 001.2-19c-.5-6.6-2-13-3-19.6-2-10.7-3.2-21.6-6.8-31.8-3.7-10.2-10-20-19.7-25" fill="#FDC87A"/><path d="M385.3 171c-2.6-.4-11.1-8-13.7-8.4-5-.7-13.8 3.4-18.6 1.9l6.7-26.2 9.6-.6a10.7 10.7 0 01-11.7-1.4c-5.7-5-8-11.2-4-17.5 4-6.4 13.9-8.5 19.7-3.6h3L378 104a21.6 21.6 0 0027-13 41 41 0 0015.5-3.3l1.1 1.2c4.6 12.6.7 35.2.7 35.2a759 759 0 0119 13.7c-4.9.9-17.8 4-22.7 4.5 0 0-7.4 21-10.3 23.1-5 3.9-13.4 3-20.5-1.3l-2.6 6.8z" fill="#D37C62"/><path d="M385.8 169.1c-4.9-1.3-8.1-6.4-13-8-6.2-2-13 3.1-19.3 1.6l1.3 2.3c2.3-8.7 4.6-17.4 6.7-26.2l-1.8 1.4 9.6-.6-1-3.4c-6 2.7-12.4-2.1-14.3-8-1.7-5 1.1-10 5.6-12.3 4-2 7.8-1.7 11.7.2a9 9 0 005 1 1.9 1.9 0 001.8-1.4l1.8-11.1-2.3 1.3a24 24 0 0029.3-14.4l-1.8 1.4a41.4 41.4 0 0012.2-2c.4 0 3.1-1.2 2.3-1.5 2.6.8 2.4 12 2.5 14a107 107 0 01-1.5 20.3 2 2 0 001 2c6.4 4.5 12.6 9 19 13.8l.4-3.4c-7.6 1.4-15.1 3.4-22.8 4.5a1.9 1.9 0 00-1.3 1.3c-1.8 5.1-3.7 10.1-5.9 15-1 2.2-2 5.4-3.7 7-4.9 4.6-13.7 1.4-18.5-1.4a2 2 0 00-2.8 1.2l-2.5 6.8c-.9 2.2 2.7 3.2 3.6 1l2.5-6.8-2.7 1c6.3 3.6 15.4 6.4 22 1.8 3.7-2.7 5.3-8.3 7-12.4l3.1-8.1 1-2.8c.6-2 .3 0 0 0 7.1-.2 14.8-3.1 21.9-4.5 1.7-.3 1.6-2.5.4-3.4-6.2-4.7-12.5-9.3-19-13.7l.9 2.1c.9-5.5 1.4-11 1.6-16.5.1-6.3.8-16.8-3.9-21.7a1.9 1.9 0 00-1.8-.5c-4.8 2-9.9 3-15 3.2a2 2 0 00-1.9 1.3 20.1 20.1 0 01-24.7 11.8 1.9 1.9 0 00-2.3 1.3l-1.8 11.2 1.8-1.4c-4.4 0-7.8-3.2-12.8-2.5a15.7 15.7 0 00-12.5 9c-5.2 11.4 7.7 24.8 19.2 19.6 1.7-.8.9-3.6-1-3.5l-9.5.6a2 2 0 00-1.8 1.3l-6.7 26.2a1.9 1.9 0 001.3 2.3c2.7.6 5.5.5 8.2-.2 3.4-.6 8-2.5 11.3-1.3 4.7 1.7 7.9 6.7 12.8 8 2.4.4 3.4-3.2 1-3.8z" fill="#D37C62"/><path d="M360.7 111.4c.3-5.6 0-11.6.8-17.2.6-5.1 2-10 4.3-14.7 2.9-5.8 8.6-9.1 14.7-11.2 6-2 14.1-2 20.2-3.5 3.9-1 7.6-2.8 11.4-4.1 3.8-1.4 7.8-2.4 11.8-1.9 4 .6 8 2.9 9.5 6.6 1.7 4.2 0 9-1.7 13.1.7-.8 2-.1 2.7.7a10.4 10.4 0 01-4.9 17 7.2 7.2 0 01-4.2 10c.6-6.9.7-9.5-2.4-15.5a50 50 0 01-20 2c-1 9-4.6 11-10.2 11.8-3.4.5-7.2-.2-12.8-1.1-1 3.8-1.8 7.8-2.4 11.8-4-1.6-12-4.4-16.7-3.8" fill="#182B84"/><path d="M204.1 402c-.3-1.8-.7-3.5-1.4-5-.2-.8-.6-1.5-1.2-2-.7-.6-1.4-.9-2.3-1-4-.6-8.1.7-11.8 2.5a7.7 7.7 0 00-3.7 3c-1.3 2.5.2 5.8-1 8.4a17 17 0 00-2.5 5.2c-.8 3-1.4 6-1.9 9l-2 10c-.3 1.7-.5 3.4-.3 5 .3 1.7 1.2 4.7 2.8 5.3 1.5.7 3.7-1.5 4.3-3-.1 2.8 1.1 8.6 3.8 9.7 2.7 1 7.7-1 7.8-3.9.7 2.2.9 1.7 2.8 2.8 2 1.1 5 2.7 7 1.4 2-1.2 3.8-4 2.7-6l1.3 1c2 1.2 6 .7 6.6-1.6.6-2.3-.7-6.8-1.7-9l-2.2-5.2.7-.6c1.1-.7 2.2-1.5 3.1-2.5a4.7 4.7 0 001.3-3.6c-.1-1.3-1-2.3-1.7-3.5-1.4-2.5-1.6-5.5-2.8-8.1a10.7 10.7 0 00-6.5-5.6" fill="#D37C62"/><path d="M206.5 401.3c-.6-3.3-1.5-7.5-4.8-9-3.8-1.9-8.9-.6-12.5.8-3 1.1-6.3 2.5-7.8 5.5-.8 1.8-.6 3.3-.7 5.2-.2 2.9-1.2 4.6-2.3 7.2-2 4.9-2.5 10.5-3.5 15.6-.7 4-2.1 8.3-1.1 12.3 1.5 6.5 8.1 8.6 11.4 1.9l-4.6-1.3c0 4.2 1.1 10.5 5.6 12.2 4.2 1.5 10-1.3 11-5.6h-4.9c1.4 3.8 6.5 6.6 10.6 6.4a7.7 7.7 0 006.7-9.6l-4.2 2.4c3.2 2.5 8.7 3.7 11.4-.2 3.3-5-1.5-13.1-3.4-17.6l-.4 3c1.9-1.8 4.1-2.7 5.2-5.3 1.3-2.8.3-4.8-1.1-7.4-1.7-3.2-1.9-6.9-3.8-10a14.2 14.2 0 00-7.3-5.4c-3-1.2-4.3 3.7-1.3 4.8 5.3 2 5.1 6.5 7 11 1.1 2.7 3 3.5 0 7-.5.6-1.6 1.1-2.2 1.7a2.6 2.6 0 00-.4 3c1 2.3 2 4.6 2.8 7l.7 2.8c-1 2.6-2.3 3.2-3.6 2-1.8-1.4-5-.2-4.2 2.4 1.5 4.9-6.8 3-7.7.5-.8-2-4.2-2.6-4.8 0-.8 3.9-5 1.9-6-.3-.5-1.6-.8-3.3-.7-5 0-2.3-3.6-3.5-4.7-1.2-1.5 3.1-2.5-.8-2.5-2.5 0-2.8 1-5.8 1.5-8.6 1-5.1 1.4-11 3.8-15.8a15 15 0 001.9-4c.3-1.6-.3-3.4 0-5 .8-3.4 5.2-4.8 8.2-5.4 4.6-1 7 1.4 7.9 5.7.7 3.2 5.5 1.8 4.8-1.3z" fill="#D37C62"/><path d="M132.3 648.8c7 9.8 4.2 22.3 12.6 29.3 9.7 8.1 22.8 4.2 30.7 12.5 3.6 3.7 5.5 7.9 5.4 11.3l-46.2.7c-22.9-16-26.7-24.5-25.4-29.5.6-2 2.1-7.1.2-10a5.8 5.8 0 00-4.7-2.9c-4.4.1-8.7 6.9-10.4 15.5l-17.3-12.6c6.7-9.1 19.6-28.1 29.8-30 22.4 1.4 20.6 9 25.3 15.7z" fill="#182B84" stroke="#182B84" stroke-width="2" stroke-linecap="round" stroke-linejoin="round"/><path d="M292.8 373.5c-36 41.1-52.3 45.1-76.7 82-6.2 9.5-12.6 21-19.3 29.7-7.4 9.4-13.1 20-22.1 27.7-36 31.1-42.2 62-76.2 116 0 0 34.5 17.4 46.2 22l7.5-13.7c73-48.2 106.3-97.6 166.6-161l12.8-12c18 35.4 37.9 78.9 63.1 109.4a178 178 0 0027.7 28c16 12.3 22.8 14 37 28.2 10.4 10.4 13.3 16.3 25.9 24.4 0 0 38.5-8.1 52-13 0 0-60.8-102.8-90.4-160.4-5.6-11-10.7-22.1-15.8-33.3-10.3-22.5-22.7-42-33-64.5 0 0-5.9-17.8-5.8-26.1-34-1-59.2-4.6-93.2-2.6l-6.3 19.2z" fill="#F5855B"/><path d="M291 371.7c-14 16-29.3 30.1-44.7 44.6a216 216 0 00-35.4 43 602.2 602.2 0 01-20.3 30.1c-3.8 5.3-7.4 10.8-11.7 15.8-3.8 4.3-8.2 7.8-12.3 11.7a186.4 186.4 0 00-32.9 44.2c-12.4 22.2-23.8 44.9-37.4 66.5a2.5 2.5 0 001 3.4c15.3 7.8 30.7 15.9 46.7 22.4a2.5 2.5 0 002.8-1.1c2.2-4 4.1-8.9 6.9-12.6 2-2.6 5.7-4.3 8.6-6.3a478 478 0 0058.7-48c28.4-27.2 53.6-57.4 80-86.4 10.5-11.4 21.1-22.4 32.4-33l-3.9-.5c21.5 42.5 41.3 86.7 74 122 8.4 8.9 17.8 16.8 27.9 23.6 7.8 5.4 15.6 10.5 22.6 16.9 7.7 7.1 13.9 15.7 22 22.4 2.7 2.3 6.4 6.1 10 6.2a18 18 0 003.5-.8c16.2-3.5 32.8-6.7 48.5-12.2a2.5 2.5 0 001.5-3.6A4985 4985 0 01463 505.7c-5-9.2-10-18.5-14.8-28-7.4-14.5-13.7-29.6-21-44.2-8.2-15.9-17.2-31.3-25-47.5a73.7 73.7 0 01-7.4-29.1 2.6 2.6 0 00-2.5-2.5c-31-1-62-4.4-93.2-2.6a2.6 2.6 0 00-2.4 1.8l-6.3 19.2c-1 3 3.9 4.4 4.9 1.3l6.3-19.2-2.5 1.9c31.2-1.8 62.1 1.6 93.2 2.6l-2.5-2.5c.3 22.7 14 43.7 24.4 62.8 13.9 25.8 25.3 52.8 39.1 78.7a3618 3618 0 0081.8 144.1l1.5-3.7c-14 5-28.8 7.9-43.3 11-2.2.6-4.5 1.1-6.8 1.5-.4 0-1.1.4-1.6.4.6 0-2.6-2.6-3.4-3.3-7.7-5.8-13.5-13.6-20.3-20.4-15-14.9-34.2-24-49.1-38.9a269.7 269.7 0 01-42-56.3c-13.2-22.7-24.5-46.4-36.3-69.9a2.5 2.5 0 00-3-1c-.3 0-.7.3-1 .5-24.2 22.7-45.8 48-68 72.7-26.4 29.5-54 58-85.6 82-5 3.8-10 7.4-15 11-3.5 2.4-8.8 4.8-11.3 8.1-3 4-5 9.2-7.5 13.6l2.9-1.2c-15.6-6.3-30.6-14.3-45.6-21.9l1 3.4c12.2-19.5 22.8-40 33.8-60.2a201.7 201.7 0 0131.8-45.6c7.4-7.6 15.3-14 21.7-22.7 7.3-10 14.7-19.9 21.2-30.4a243.7 243.7 0 0136.5-47.5c16.5-16 33.6-31 48.9-48.4 2.1-2.4-1.4-6-3.5-3.6z" fill="#F5855B"/><path d="M586.4 204c1.2 3.3-4.2 6.1-2.3 9.2 1.8 2.6.7 2.1-1 4.3-2 2.5-14.9 9.4-17.3 11.2-3.4 2.4-6.6 5-9.6 8-2.7 3-8.8 5.7-12.3 6.7-5.6 1.6-4.1-1.6-8.6-5.4-1.7-1.4-6.7-3.7-8-5.6-1.7-2.7-4-7.3-4-10.9 0-1.3 4.8-.8 5.3-2 .4-.8.8-1.6 1.4-2.3a66 66 0 0116-13.8c4-2.9 8.7-5.8 13.2-5 1.8.5 3.4 1.2 5 2.3 2 1.4 3.9 2.9 5.7 4.5a15 15 0 013.2 3.6c1.8 3.1 7.4-2.7 7.4 1.3" fill="#D37C62"/><path d="M584 204.6c.4 2-2.6 4.4-2.7 6.7-.1 2.7 1.7 3-.8 5.2-4 3.5-9.2 5.8-13.7 8.6-5.8 3.5-10.1 9-15.8 12.5-1.9 1.2-7.3 4.6-9.5 3.7-1.6-.6-3.4-4.2-5-5.4-2.5-2-5.7-3-7.6-5.8-1.3-1.7-2.1-3.7-2.6-5.7-.3-2.1-1-.8 1-1.7 3.1-1.3 3.2-2.3 5.5-5 3-3.6 6.6-6.7 10.4-9.4 3.1-2.2 6.3-4.7 9.7-6.3 5.9-2.7 11 1 15.2 5 2 1.8 3.2 4.7 6 5.2 1 0 2 0 2.9-.3l1.5-.5c1-.2.9-.4-.4-.6.4 3.1 5.2 1.8 4.8-1.4a3.5 3.5 0 00-3.2-3.2c-2.7-.3-3.5 1.6-5.8-.5-5.3-4.8-11.3-11.2-19.2-9.6a51.7 51.7 0 00-20.3 12.8c-1.6 1.4-3.2 3-4.6 4.6-.8 1-2 3-2.9 3.9-1.4 1.2-4.2.5-5.5 2.4-2.7 4 2.5 13 5.5 15.7 2.1 1.9 5 2.9 7 4.8 2 1.7 2.9 4.5 5.3 5.6 4.8 2 12.8-2.7 16.4-5.5 5.4-4 9.9-8.8 15.7-12.2 5-3 11-5.7 14.7-10.3 2.3-2.8.2-3.7.4-6.6 0-1.2 1.5-2.6 2-3.8.5-1.3.6-2.8.3-4.2-.6-3.1-5.4-1.8-4.8 1.3h.1z" fill="#D37C62"/><path d="M581.5 204.4c4.1-.7 8.5.6 12.1-2a6.7 6.7 0 003.1-6c0-1.4-.8-2.5-1.2-3.8-.5-1.5-.2-3-.6-4.5a5 5 0 00-9.5.1c-.3 1.3-.2 2.5 0 3.8.2.8.6 4.2 1 4.8 0 .6.3.5.8-.4l-.5.1c-.5 0-1 .2-1.4.3-1 .4-1.8 1.1-2.3 2a2.6 2.6 0 00.4 3c2 2.1 4.7 1.7 6.9 0 2.7-2.2 3.2-5.3 2.6-8.6-.6-3.3-5.4-1.8-4.8 1.4a3.4 3.4 0 01-.4 2.7c-.4.6-1.1.7-.8 1l.4 3c-.6.3-.5.3.2 0h.5c.7-.2 1.3-.4 1.9-.8a3.9 3.9 0 001.6-3c.2-1.8-.5-3.8-1-5.5l-.4-2.1.2 2.5c.2 1.3 1.8 3.7 1.4 4.9-.5 1.3-2.2 1.6-3.2 1.7-2.8.3-5.6 0-8.3.4-3.2.5-1.9 5.3 1.3 4.9z" fill="#D37C62"/><path d="M598.6 181.3c-14.7 17.7-26.7 31.4-41.4 49a7.5 7.5 0 01-4 2.6c-1.8.3-3-1.7-5-3-7.6-6.1-11.5-9.8-19-16a2 2 0 01-1-2c.1-1.5 2.6-4.5 2.8-4.5l34.4-39.4c.7-.8 2.7-3.2 4-3.6 1.8-.6 3.4.4 6.2 1.3 17.5 7 15 6.1 19.6 8 .3.1 3.1 1.3 4.2 2.5.6.6 1.4 2.7-.8 5.2z" fill="#B8DDF0" stroke="#B8DDF0" stroke-miterlimit="10"/><path d="M537.3 223.7c-1.6-9.5-1.7-9.1-4.2-16.5 2.6.2 7.5-1.4 9.5-2.2 2-.8 4.4-1.8 5.8-3.6 1.3-1.9 1.4-4.4-.5-5.6-1.5-1-3.7 0-5.9 1.1-2.7 1.6-3.2 1.4-5.6 1.7-3.1.3-4.8-.5-7.1 0-2.4.6-4-.5-5.3 1.7-.7 1.2-1.2 2.5-1.7 3.7a42.2 42.2 0 001 20.3c.3 1 1.1 1.8 1.4 2.8a57.8 57.8 0 01-.3 10.8v1.4c.3.4.7.7 1.2.8 7.7 3.3 10.2 6 18.4 7.8.3 0 1.7 3 3.8 2.5.5 0 0-.5.3-1 1-1.9 3.1-7 4-8.8.6-.8 1.1-1.7 1.5-2.7.1-1 .4 0-.4-.6-3.2-2.8-7-4.9-11-6.2-4-1.4-8-2.4-12-3.7.2-1.2.6-2.3 1.2-3.4" fill="#D37C62"/><path d="M539.7 223c-1-5.6-2.4-11.1-4.2-16.5l-2.4 3.2c5.7 0 24.8-5.8 17.4-14.8-3.9-4.9-9.7.8-14.1 1.1-4.5.4-11-1.4-14.2 2.5-2.8 3.5-3.2 8.8-3.2 13 0 2.8.1 5.5.5 8.1.6 3.4 2.6 6.6 2.9 9.9.2 3.1-1.4 7-.4 10 .8 2.6 3.7 3.3 6 4.4 2.2 1.1 4.6 2.5 7 3.6 2.3 1 5.7 1.4 7.6 2.7 1.7 1 2.3 2.7 4.6 2.7s2.5-1.2 3.3-3l3-6.4c.8-1.8 2.2-3.5 2.6-5.4.5-2.4-2.3-4.3-4.2-2.5l3-.3c-3.4-1.8-6.2-4.3-9.9-5.8-4.6-1.9-9.5-3-14.3-4.6l1.8 3.1 1-2.8c1.2-3-3-5.5-4.4-2.5l-1.4 4a2.5 2.5 0 001.7 3c4.3 1.4 8.6 2.5 12.8 4 4 1.5 6.6 4 10.2 6a2.6 2.6 0 003-.4v-.1l-4.1-2.4c-.4 2-2.3 4.4-3.1 6.3-.8 1.7-2 5-2.7 6l2.2-1.2c-1 0-1.7-1.7-2.5-2.2-1.8-1-4.6-1.2-6.5-2-4.2-1.7-9.4-4-13-6.6l1.3 2.2c-.3-3.5.5-7 .4-10.4-.2-3.2-2-5.8-2.7-8.9-1-4.8-1.9-12.8.8-17.1 2.3-3.8 10.7-1.2 14.7-2.4.3 0 3-1.4 3.1-1.4 5.1.8-.6 3.2-1.4 3.5-2.8 1.2-5.8 2-8.8 2.1a2.5 2.5 0 00-2.5 2v1.2c2 5.3 3.3 10.8 4.3 16.4.5 3.2 5.3 1.9 4.8-1.3z" fill="#D37C62"/><path d="M493.3 654.2c-2.9 11 3.8 37.7 5 37.8h21.1c-1.2-7.5-5.6-11.2-3-17.4.8-2 3.6-6 8.8-3.4 4 2 7 9.4 13 12.8 10.3 5.8 21.6 1.6 40-6.6 8.4-3.7 19.3-10 32.4-19a23.1 23.1 0 00-13.7-8.8c-7.5-1.8-10.7.5-19.9 3.6-17.5 6-23.6-2.2-48-7.9-13 5.3-22.8 3.7-35.7 8.9z" fill="#182B84" stroke="#182B84" stroke-linecap="round" stroke-linejoin="round"/><path d="M576.8 222.9c.8-1.7 2-3.3 3-5a43 43 0 002-4.6c2.2-5.4-5.5-4.5-8.4-4.3-2.3.2-6 0-7.8 1.5a4.2 4.2 0 00-.3 5.6c3 4 9 3.4 13 1.4 2-1 1.3-4-.6-4.6-3.2-1-6.6-1.1-9.9-.5a2.5 2.5 0 00-1.7 3.1c.7 3.3 4.8 3.2 7.4 3 2.8-.3 5.7-1 6-4.2.2-3.3-4.8-3.2-5 0v.5l.7-1.8c-.6.8-4.5.8-5.3.2l1.1 1.5v-.5l-1.8 3a15 15 0 017.2.5l-.6-4.5c-1.4.7-3 1-4.5.8l-1.9-.8c-.7 1-.6 1.4.2 1.2l1.4-.2 4.8-.3 1.5-.2c.6-.1 1 .3.5-.3l-.7-1.7c0-.7 0-.3-.3.3l-.5 1-.9 2.4c-1 1.7-2.2 3.2-3 5-1.4 2.8 3 5.3 4.3 2.4v.1z" fill="#D37C62"/><path d="M581.8 218.7c2.7-4 10.8-12.2 5.5-16.8-2.5-2.3-6.6-2.9-9.9-3-3.2-.2-9.1-.4-10.7 3a2.5 2.5 0 000 2.6c2 2.8 5.5 3.6 8.9 4 3.4.4 7.7 1 10.6-1.3 1.3-1 .8-3.2-.5-4a19.5 19.5 0 00-8.6-2.1c-2.5-.3-4.7-.6-6.2 1.7a2.6 2.6 0 00.4 3c2.7 3.3 8.8 4 12.8 3.6 3.2-.2 3.2-5.2 0-5-2.8.2-7.3.2-9.3-2.2l.4 3 .3-.5-1.5 1.2a16 16 0 019.2 1.7l-.5-4c-1 .8-4.8.1-6 0-1.5-.1-4.7-.3-5.7-1.6v2.5c.6-1.3 7.1-.6 8.2-.4 1 0 2 .3 2.8.6 1.9.7 2 .6 1.3 2.5-1.4 3.4-3.8 6-5.8 9-1.8 2.7 2.5 5.2 4.3 2.5z" fill="#D37C62"/><path d="M400.1 288.5c9-27.1 15.4-55.7 14.7-84.4a99.3 99.3 0 0113.8 16.8c2 3.3 8.7 23.3 10.3 26.9 4.3 9.7 5.4 7.5 13.4 13.9 8.3 6.6 31.9-12.6 42.5-12.8 9.2-.3 16.8-8 24.6-13 .6-.4 1.3-.7 2-.8 1 0 2 .3 2.7.9 8.6 5 17 10.5 25.2 16.3v2.5c-3 4-9 15-9 15s-.8 8.8-1.8 14c-3.6 18.8-18 33.6-33.6 44.7-4 2.9-8 5.5-12.4 7.7-9 4.6-40 18.4-55.4 14.1-32.4-8.8-46-24.3-54.4-37.4.7-1.3 1.6-2.5 2.5-3.5a59 59 0 0015-21z" fill="#F0E4D7"/><path d="M402.5 289.1c9-27.4 15.4-56 14.8-85L413 206c5.1 5.2 11 10.9 14.1 17.6 2.2 4.5 3.6 9.4 5.3 14.1 3 8.2 5.2 17 12.8 22.1 3.6 2.5 6.8 5.8 11.4 5.9 4.6 0 9-1.8 13-3.6 5.4-2.4 10.6-5.3 16-7.7 2.2-1 4.5-2 6.8-2.6 2.7-.6 5.4-.5 8-1.3 3.7-1.2 7.2-3 10.4-5.4 2.8-1.9 6.6-6.1 9.9-7 3.6-1 10.3 5 13.3 6.9 4.8 3 9.4 6.2 14 9.5l-1.2-2.2c0 2.5-1.3 3.7-2.8 6l-5 8.7c-2.3 4-1.8 9.2-2.5 13.8-3 18.8-16.1 33.2-31 44.2-12 8.8-25.4 15-39.6 19.4a73 73 0 01-22.2 4.2c-8.7 0-18-4.1-25.6-7.8a80 80 0 01-33.3-29.2v2.6c2.9-4.5 7.2-7.9 10.4-12 2.9-3.9 5.2-8 7.1-12.4 1.2-3-3-5.5-4.3-2.6-2 5-4.8 9.5-8 13.6-3 3.7-6.9 6.8-9.5 10.9a2.5 2.5 0 000 2.5 83.7 83.7 0 0024.2 24.9c12.2 8 28.6 15.9 43.6 14.4 13.6-1.3 26.9-6.5 39.3-12a113.2 113.2 0 0038.4-28.2c5.6-6.2 10-13.4 12.9-21.3 2.2-6.2 4-14.3 3.8-21-.1-1.6-.2 0 0-.1l1.2-2.4 5.4-9c1.3-2 2.6-3.4 2.6-5.9-.1-3.6-3.1-4.7-6-6.6-4-2.8-8.2-5.6-12.5-8.2-3.2-2-7.9-6.3-11.9-6.1-3 0-5.9 2.9-8.2 4.6-3.7 2.6-7.3 5.5-11.4 7.4-3.3 1.5-6.5 1.4-10 2.1a39 39 0 00-7.8 2.8c-6.2 2.8-12 6.2-18.4 8.8-2.8 1-6 2.5-9 2.3-3-.2-5.6-3-8.2-4.7-5.1-3.4-7-8.4-9.1-14-2.4-6.5-4.5-13-7.2-19.3-3.3-7.8-9.8-14.3-15.6-20.2a2.5 2.5 0 00-4.2 1.8c.5 28.6-5.7 56.6-14.6 83.7-1 3 3.7 4.3 4.7 1.3z" fill="#F0E4D7"/><path d="M407.8 298.3l-1.5 7.6-.2-.2 1.7-7.4z" fill="#F0E4D7"/><path d="M405.4 297.7l-1.5 7.5 4.1-1-.1-.2.6 2.4 1.8-7.4c.7-3.1-4.1-4.5-4.9-1.3l-1 4.4c-.4 1.8-1.4 4 .1 5.6a2.5 2.5 0 004.2-1.1l1.6-7.6c.6-3.1-4.2-4.5-4.9-1.3z" fill="#F0E4D7"/><path d="M305.6 178.4a52.8 52.8 0 0118.7-1.1c8 1 14.4.6 24.2 2.5v-10.1c.3-1.6 1-3 2.1-4.1.6-.4 10 1.7 15.3 2.8 8.4 1.8 20.2 2.9 28.4 5 .7.2.1 11.3.1 13.5l1.7.8a98.2 98.2 0 0116.5 8 251 251 0 017.6 85.3 59 59 0 01-9 24c-.7 1.3-1.2 2.6-1.6 4a151 151 0 01-3.4-3.1l1.6-7.6-1.7 7.4.1.2c-1.8 8.9-4.4 20.3-6.6 26.5-1.7 5-6.7 24.5-6.7 24.5s-23.5-4.8-26-4.5c-27.5 2.5-41.3 1-68-.3 0 0-4-17.3-4.5-21-2.7-15.7-7-47.4-7-47.4L284 289c1.9-10.6 6.6-20.8 10.2-31 9-25.4 11.8-52.5 11.4-79.6z" fill="#F0E4D7"/><path d="M306.3 180.8a66.4 66.4 0 0121.1-.7c6.9.6 13.6.9 20.4 2.2a2.5 2.5 0 003.2-2.5v-5.7c0-1.4-.3-3.4.2-4.8.6-2 0-1 1.8-1 2.7 0 6 1.2 8.7 1.8l10 2 11 1.6 5.4 1c.4 0 5 1.1 4.1.3-.6-.6 0 .8 0 1.8v3.7l-.2 6.4a2.5 2.5 0 001.2 2.1c3.6 1.7 7.3 3 10.8 4.8 2.3 1.2 5.4 2.2 6.8 4.4 1.3 2 1.5 5.8 2 8.1 2.8 12 4.5 24.1 5 36.4.7 11.5.7 23 0 34.6a50.6 50.6 0 01-3.3 15.8c-2.1 5.3-5.6 9.9-7.3 15.3l4.2-1-3.4-3.3.7 2.5 1.5-7.6c.7-3.1-4-4.5-4.8-1.3-.6 2.5-3.1 7.8-1 10l-.6-2.4c-3.6 17.2-9 34-13.3 51l3-1.8c-10.3-2-20.8-5-31.4-4.2-21.1 1.7-42 .4-63.2-.6l2.4 1.8a811.3 811.3 0 01-11.6-68.4c-.3-2.3-3.5-2.3-4.5-.7l-3.4 5.4 4.6 2c1.8-9.7 5.6-18.6 9-27.7 3.2-8.8 5.8-17.8 7.8-27a261 261 0 004.9-56.7c0-3.3-5-3.3-5 0 .2 19.2-1 38.5-5.2 57.3-2 9-4.7 18-8 26.7-3.2 8.6-6.6 17-8.3 26a2.5 2.5 0 004.5 2l3.4-5.4-4.5-.6a810 810 0 0011.5 68.4 2.5 2.5 0 002.4 1.9c20.5 1 40.9 2.3 61.4.8 11-.8 21.3 1.7 32 3.8a2.5 2.5 0 003-1.7c2-7.3 3.8-14.7 6-22 1.5-4.9 3-9.7 4.2-14.8 1-3.7 1.8-7.4 2.6-11.2.4-1.8 1.4-4-.2-5.6l.6 2.4 1.8-7.4-4.8-1.3c-.5 2.4-2 5.8-1.7 8.2.3 2.1 2.6 3.6 4 5a2.5 2.5 0 004.3-1.2c1.8-5.6 5.5-10.5 7.5-16 2-5.3 3.1-10.8 3.3-16.4.7-12.8.7-25.6-.2-38.4-.9-12.3-2.8-24.6-5.7-36.6-.6-2.2-.9-6-2.2-7.8-1.3-1.9-4-2.7-5.9-3.7-4.3-2.3-8.8-4-13.2-6l1.2 2.1.2-9c0-1.7.4-4.4-.8-5.8-2-2.5-8.6-2.5-11.5-3-5.2-.8-10.3-1.5-15.4-2.4L357 164c-2-.3-5-1.5-7.1-.8-5.7 1.9-4 12.3-4 16.7l3.1-2.4c-7.2-1.4-14.4-1.7-21.7-2.4-7.7-.7-14.9-.8-22.5.9-3.1.6-1.8 5.4 1.4 4.7z" fill="#F0E4D7"/><path d="M211 262c15.7-27.1 43.4-50.8 64-67.7a78.6 78.6 0 0130.6-16c.3 27.1-2.5 54.2-11.4 79.7-3.7 10.2-8.4 20.4-10.3 31a83.9 83.9 0 01-30.3 29.6c-12.2 8-20.5 47.6-36.6 68-4.6 5.8-2.4 13.2-6 16 0 0-20-2-30.2-4 .5-7 .5-20 .5-20s-5.3-8.7-5.8-13.7c-2.8-27 9.8-58.2 35.5-102.8z" fill="#F0E4D7"/><path d="M213.1 263.3a214.3 214.3 0 0144-50.5c14.6-13 29.6-27.1 49.1-32l-3.1-2.4c.3 24.8-2 49.8-9.5 73.6-3.7 11.6-8.5 22.8-11.7 34.6a43 43 0 01-12.5 16.9c-3.6 3.4-7.5 6.5-11.6 9.3-3 2.2-6.4 4-9 6.8-4.4 4.8-7.2 11.1-9.9 17-7 15.7-12.4 32.8-22.6 46.8a28.9 28.9 0 00-5.3 12.9c-.2 1-1.3 4.3-.3 3.8-.5.3-2.7-.3-3.3-.4-8.6-.9-17.4-1.8-26-3.4l1.9 2.4c.5-8 2.2-17.2-1.6-24.3a47.9 47.9 0 01-2.8-31.7c5-28.4 20-54.7 34.2-79.4 1.6-2.8-2.7-5.3-4.3-2.5C194.4 286 179 313 174 342c-1.7 9.8-2.9 21 1.2 30.3 1 2.4 2 4.7 3.4 6.9.8 1 .3.5.2-.3v2c0 6-.1 11.9-.5 17.8a2.5 2.5 0 001.8 2.4c8.2 1.6 16.4 2.5 24.6 3.4 5.5.6 9 1.4 10.8-5.1 1.3-5 1.6-8.5 4.7-12.9a99 99 0 007.1-11.4c4.4-8.4 8-17 11.6-25.7 3.2-7.6 6.2-15.5 10.7-22.5 4.7-7.2 12.9-10.9 19.4-16.3 5.8-5 10.8-10.6 15-17 2.5-3.8 3-7.4 4.2-11.7 1.8-6.2 4.2-12.1 6.4-18a231.8 231.8 0 0013.2-86.6 2.5 2.5 0 00-3-1.3c-19.8 5-35.2 19-50.2 32.3a222 222 0 00-45.8 52.6c-1.6 2.8 2.7 5.3 4.3 2.5z" fill="#F0E4D7"/><path d="M322.7 174.7a58 58 0 0119 1.2l3.2 4.8c17 29 25.2 57.5 9.3 111.1-10 33.8-45.1 66-73.4 89l5.3-24.5c0-7.3 6.3-6 6.2-13.4 12.8-5 27.1-27.9 34.4-39.6 2.6-4.2 26.2-34.6 10.5-90.8-4.2-15-14.5-37.8-14.5-37.8zM419.2 195.6l-12.4-6.6c-3.5-2.2-6.7-2.7-9.6-3.7 21.5 39.7 20.3 43 18.7 78.3a88.9 88.9 0 01-2.7 16.2c-2.4 10-2.7 14-5.4 26.2-2 10.9-3.3 16.6-3.3 16.6s35-38.2 32.5-75.4c-.8-12-5-39.2-17.8-51.6" fill="#FDC87A"/><path d="M386.6 284c5.2-6.4 5.7-7 9.1-14.5 3-6.4 5.3-13.6 4.3-20.6-.9-6-3.6-16-8.4-19.6-11 6.1-19.8 18.7-5.4 53.8" fill="#FFB607"/><path d="M388.4 285.8a60.7 60.7 0 0014-29.5c1.2-9.2-1.7-22.6-9-28.8a2.6 2.6 0 00-3-.4c-21 12.2-14 38.3-6.6 56.7 1.2 3 6 1.6 4.8-1.3-6.4-16-14.4-40.3 4.3-51l-3-.4c6.8 5.7 9 18.6 7.3 26.8-1.9 9.1-6.6 17.3-12.3 24.4-2 2.4 1.5 6 3.5 3.5z" fill="#FFB607"/><path d="M390.2 226.3c5 22-1.5 46.2-8 67-.8 2.3 2.9 3.3 3.6 1 6.8-21.4 13.3-46.4 8-68.9-.5-2.3-4.1-1.4-3.6 1z" fill="#182B84"/><path d="M402.5 241.5a170 170 0 00-11 8.4c-1.9 1.6.8 4.2 2.6 2.7a179 179 0 0110.3-8c2-1.3 0-4.5-2-3.2h.1zM403 254.5c-4 2.7-8.1 5.2-12 8.2-1.9 1.4 0 4.7 1.9 3.2 3.8-3 8-5.4 12-8.2 2-1.4 0-4.6-1.9-3.2zM391 268.8c-4.7-5.9-10.6-10.5-15.6-16-1.6-1.8-4.2.8-2.6 2.6 5 5.6 10.8 10.2 15.5 16 1.5 2 4.1-.8 2.6-2.6z" fill="#182B84"/><path d="M394 251c-4.3-5.3-9.4-9.8-13.6-15.1-1.5-2-4.2.8-2.7 2.6 4.3 5.3 9.4 9.8 13.6 15 1.5 2 4.1-.7 2.6-2.6z" fill="#182B84"/><path d="M595.7 176.2c4.4 2.3.5 6-1.6 8.4l-3.4 4-8.2 9.6c-1.6 1.8 1 4.5 2.6 2.6 5-5.7 10.7-11.5 15.1-17.7 2.8-4 1.7-8-2.6-10.2-2.1-1.1-4 2.1-1.9 3.3zM566.1 218c-2.8 3.9-5.9 8.6-9.6 11.8-2.4 2-2.9 1.6-5.6 0a58.2 58.2 0 01-6.8-5c-1.8-1.6-4.5 1-2.6 2.6 3.1 2.6 9.7 9.3 14.3 7.8 2.8-.9 5-4.6 6.8-6.7 2.4-2.8 4.6-5.7 6.8-8.7 1.4-1.9-1.8-3.8-3.3-1.8z" fill="#0099FB"/><path d="M361.9 119.8c1.8 2.8 3.8 5.6 6 8.3l.3-3a49.7 49.7 0 01-8.3 3.2c-2.3.7-1.3 4.3 1 3.6 3.1-.9 6.2-2 9.2-3.5a1.9 1.9 0 00.4-3c-2-2.4-3.7-5-5.4-7.5-1.3-2-4.6-.1-3.2 1.9zM415.2 120.2c-2 4.1-3.9 10.7-6.6 9.8-3-1 .7-8.3 3.2-12.4" fill="#182B84"/><path d="M413.6 119.3c-.9 1.7-1.6 3.5-2.4 5.3-.2.6-2 3.5-2 3.7-.5-.7 1-3.9 1.4-4.5.8-1.8 1.7-3.6 2.8-5.3 1.2-2-2-4-3.3-1.9-1.8 3-7.5 11.8-3 14.8 5.3 3.4 8.3-7.4 9.7-10.3 1-2.1-2.2-4-3.3-1.8z" fill="#182B84"/><path d="M416.9 117.6c-3.3-3.9-7.8-4.8-12.7-3.5-2.3.7-1.3 4.3 1 3.7 3.7-1 6.6-.4 9 2.5 1.6 1.8 4.2-.8 2.7-2.7zM419.7 112c-3-3-7.1-4.7-11.4-5-2.4-.2-2.4 3.6 0 3.8 3.3.2 6.4 1.6 8.8 4 1.7 1.6 4.3-1 2.6-2.7zM415.4 152.6c-1.7-1.2-3-2.7-4.1-4.5-1.3-2-4.6-.1-3.3 2 1.4 2.2 3.3 4.2 5.5 5.7a1.9 1.9 0 002.5-.6 2 2 0 00-.6-2.6zM359 141.3c4.1 1.2 8.5 1.3 12.7.3l-2.3-1.3a41.6 41.6 0 005.5 15c3.7 5.4 8.3 10 13.6 13.7 2 1.4 3.9-1.8 1.9-3.2-5.2-3.6-9.6-8-13-13.3-2.5-4-3.4-8.7-4.4-13.3a1.9 1.9 0 00-2.4-1.3c-3.5 1-7.2.8-10.7-.2-2.3-.7-3.3 3-1 3.6h.1zM584 207.4c-4.6 0-9.3.2-13.8-.3-3.3-.4-5.4 0-6.9 3.2-1 2.2 2.3 4 3.3 1.9 1-2.2 6-1.1 8-1.1h9.4c2.4 0 2.4-3.7 0-3.7zM591.6 203.7c-3-8.8-16.5-6.8-23.6-5.2-2.4.6-1.4 4.2 1 3.7 4.5-1 17-3.3 19 2.5.8 2.3 4.4 1.3 3.6-1zM546.4 193.7a5.1 5.1 0 01-4 4.2 3 3 0 01-2.9-1.6c-1-2.1-4.3-.2-3.2 2a6.6 6.6 0 007.7 3 8.8 8.8 0 006-6.6c.5-2.3-3-3.3-3.6-1zM535.4 211.5c2.6 6.3 3.5 13 2.6 19.8-.3 2.3 3.5 2.3 3.8 0 .8-7.4-.2-14.9-3.2-21.7-1-2.2-4.2-.3-3.2 2z" fill="#182B84"/><path d="M576.5 216.7c-3.8.9-9.2 0-9.7-4.8-.2-2.4-4-2.4-3.8 0 .8 7.4 8 9.8 14.5 8.5 2.4-.5 1.4-4.2-1-3.7zM580.9 170.5l-.6.2a1.9 1.9 0 001 3.6l.6-.2a1.9 1.9 0 00.4-3.5 1.9 1.9 0 00-1.4 0zM548.7 246.3l-24.4-15c-2-1.3-4 2-2 3.2l24.5 15c2 1.3 4-2 1.9-3.2z" fill="#182B84"/><path d="M211 402.2a428 428 0 01-29.2-3c-2.3-.3-3.4 3.3-1 3.7 10 1.4 20.1 2.4 30.2 3.1 2.4.2 2.4-3.6 0-3.8z" fill="#0099FB"/><path d="M119 587.4c-4.4 7.3-9.6 13.8-14.5 20.8a71.6 71.6 0 00-9.8 22.2 2 2 0 001 2.1c7.4 4.7 16.2 8 24.2 11.6 8 3.6 15.8 7.3 23.8 10.7 2.2 1 4.1-2.3 2-3.3-8-3.4-16-7-23.9-10.7-8-3.6-16.8-6.8-24.3-11.5l.8 2.1c2.3-8 5.2-15.4 10-22.1 4.9-6.8 9.7-13 14-20 1.2-2.1-2-4-3.3-2zM271.8 391.1c-24 19.6-45.8 42-63 67.9-9 13.5-16.9 27.8-27.2 40.4-9.6 11.5-22.6 19.9-32 31.6-9.7 12.3-14.3 27.7-22.1 41.2-1.2 2.1 2 4 3.2 1.9 7-12 11.4-25.6 19.2-37.1 8.6-12.6 22.1-21 32-32.4 9.8-11.2 17.5-24 25.5-36.5A287 287 0 01236 430c11.9-13 24.7-25.1 38.4-36.1 1.9-1.6-.8-4.2-2.7-2.7zM350.1 444.5c-6.9 7-13.2 14.6-20.1 21.6-1.7 1.7 1 4.4 2.6 2.7 7-7 13.3-14.6 20.2-21.7 1.7-1.7-1-4.4-2.7-2.6zM538.4 639.2c-9.6 3.8-19.5 9-29.7 10.5-8.8 1.4-17 2.1-25.7 4.6-2.3.6-1.3 4.3 1 3.6 8.8-2.5 17.4-3.2 26.3-4.6 10-1.7 19.7-6.8 29-10.4 2.2-1 1.3-4.5-1-3.7z" fill="#182B84"/><path d="M484 654.2a371.4 371.4 0 00-41.4-36.7 389.8 389.8 0 01-37-30.8c-8.7-8.5-15.2-18.5-21.8-28.7a933.5 933.5 0 01-21.8-35c-10.8-18.2-19.5-37.7-29.1-56.5-1.1-2.2-4.4-.3-3.3 1.9 9.2 17.9 17.5 36.5 27.6 53.9A841.7 841.7 0 00378 556c6 9.3 11.8 19.6 19.4 27.9a266 266 0 0036.3 31.6 414.2 414.2 0 0147.5 41.3c1.7 1.7 4.4-1 2.7-2.7zM321 372.4c-7 17.8-30.3 24-47.3 18.2-2.3-.8-3.3 2.8-1 3.6 19.2 6.6 44-1.2 52-20.8.9-2.3-2.8-3.2-3.7-1zM307 258.7c-5 11.2-13.9 21.3-21.6 30.8-1.5 1.9 1.2 4.6 2.7 2.7 7.8-9.8 17-20.1 22.1-31.6 1-2.2-2.2-4.1-3.2-2z" fill="#182B84"/><path d="M475 346a63.1 63.1 0 01-49.8 1c-2.2-1-4.1 2.2-2 3.2a66.8 66.8 0 0053.7-1c2.2-1 .3-4.2-1.9-3.2z" fill="#0099FB"/><path d="M273.7 303.8c-3.6 3.7-7.6 7-11.9 10-3.8 2.6-8.2 4.8-11.1 8.4-3.3 4-4.6 9.5-6.5 14.3-2.2 5.6-4.7 11-7.5 16.4-5.2 9.5-11 18.8-17.2 27.7-2.3 3-3.9 6.6-4.7 10.4-.6 2.8-1 10.4-4.3 11.3-2.3.7-1.3 4.3 1 3.6 6.4-1.8 6-11.8 7.7-17 1.5-5.2 5.8-9.7 8.7-14a174.7 174.7 0 0016.9-30c2.4-5.6 4-11.5 6.7-17 2.8-5.6 8.6-8.2 13.5-11.7 4-2.9 7.8-6.1 11.4-9.7 1.7-1.7-1-4.3-2.7-2.6zM391.6 166.5c-12.5-2-25-3.7-37.5-6-2.4-.4-3.4 3.2-1 3.6 12.4 2.3 25 4 37.5 6 2.3.4 3.3-3.2 1-3.6zM432.1 232.7c2.5 18 .8 34.5-6.5 51.4-.9 2.2 2.3 4 3.3 1.9a97.3 97.3 0 007.6-25.3 108 108 0 00-.8-29c-.3-2.4-4-1.4-3.6 1zM319 313.9a162.4 162.4 0 01-35.6 39.1c-1.9 1.5.8 4.1 2.7 2.6a165.5 165.5 0 0036-39.9c1.4-2-1.9-4-3.2-1.9zM393.9 357.2c-7.3-1.6-14.6-1.9-22-2.6-2.3-.2-2.3 3.6 0 3.8 7 .6 14 1 21 2.4 2.4.5 3.4-3 1-3.6z" fill="#182B84"/><path d="M322 174.1c-12.5.2-25 .9-35.8 8-11 7.2-21.4 15.5-30.8 24.8-1.8 1.7.9 4.3 2.6 2.6 9-8.6 18.5-16.4 28.7-23.3 10.7-7.4 22.7-8.1 35.3-8.3 2.4 0 2.4-3.8 0-3.8z" fill="#F5855B"/><path d="M442.3 136.4c-6.9 2-14 3.4-21 4a2 2 0 00-1.9 1.3c-1.4 4.8-3.3 9.6-5.2 14.3-2.3 5.8-6.2 12.4-13.4 11.2-2.4-.4-3.4 3.2-1 3.6 14.9 2.6 20-17.2 23.3-28l-1.9 1.3c7.5-.5 14.9-1.9 22-4 2.3-.7 1.4-4.3-1-3.6zM208.9 420.7l3.5 10c.8 2.2 4.4 1.3 3.6-1l-3.5-10c-.8-2.3-4.4-1.3-3.6 1z" fill="#182B84"/><path d="M558.7 655.5c-.5 3-.8 6-1 9l3.6-.9-.1-.4c-.4-2.4-4-1.4-3.7 1 0 .5.3 1 .5 1.3a1.9 1.9 0 003.5-1c0-2.7.3-5.4.8-8 .4-2.4-3.2-3.4-3.6-1zM549.6 652.9l-2 8.6c-.6 2.4 3 3.4 3.6 1l2-8.6c.6-2.4-3-3.4-3.6-1zM540.8 649.2l-2.7 7.6c-.8 2.3 2.9 3.3 3.7 1l2.7-7.6c.8-2.3-2.9-3.3-3.7-1zM143.2 676.2l-5.8 4.5a1.9 1.9 0 000 2.7 2 2 0 002.6 0l5.9-4.6a1.9 1.9 0 000-2.6 2 2 0 00-2.7 0zM138.4 669.4c-2 1-3.8 2.4-5.4 4-1.8 1.6.9 4.3 2.6 2.6 1.4-1.3 3-2.5 4.7-3.4 2.1-1 .2-4.3-2-3.2zM136.8 660.6c-2.8 1-5.3 2.6-7.6 4.6-1.8 1.6.9 4.3 2.7 2.7 1.7-1.6 3.8-2.9 6-3.7 2.2-1 1.2-4.5-1-3.7zM564.2 198.6s-8-8-13.5-14.7l4.4-4.6c2.8 5.5 7 16 9 19.3z" fill="#F5855B"/><path d="M466.2 101.7a49.4 49.4 0 0115.6-23.4 33 33 0 0124.5-7.6 39 39 0 0115.7 6.6c5.4 3.5 10 10.7 13.1 16.6 6 11.4-5.3 35.7-5.3 35.7a2644 2644 0 0125.3 49.7l-4.4 4.6c-9.9-12-23.9-31.4-30.5-38.4-6.4 10.3-16 10.7-26.5 8.5a37.8 37.8 0 01-25.8-18c-5-9.9-5.4-22.8-1.7-34.3z" fill="#FDC87A"/><path d="M523.1 119.3c-1-5.1-5.4-8.3-10.1-10.2 1.3-1.5 2.2-4.9 2.4-6.9.2-2 .3-4.5-1-6.1-1.5-1.9-4.4-2-6.3-.5a8.3 8.3 0 00-3 6.3c0 2.4.5 4.9 1.2 7.2a7.6 7.6 0 00-7.7 3.4c3.5 4.1 5 4.7 8.3 8.9 7-1.8 9.2-1.7 16.3-2" fill="#F5855B"/><path d="M525.5 118.6c-1.6-5.8-5.9-9.4-11.3-11.7l1 3.4c3.3-4.8 5.3-16.3-2.6-18a7.8 7.8 0 00-8.1 3.6c-2.8 4.2-1.8 9.3-.6 13.9l2.4-3.2c-4.2-.4-7.4 1.4-9.8 4.7a2.5 2.5 0 00.4 3c2.6 3 5.6 5.8 8.2 8.9a2.5 2.5 0 002.5.6 85.5 85.5 0 0115.5-2c3.2-.2 3.3-5.2 0-5-5.7.2-11.3 1-16.9 2.2l2.5.6c-2.7-3-5.7-5.8-8.3-8.8l.4 3a5.7 5.7 0 015.5-2.2 2.5 2.5 0 002.4-2v-1.2c-.6-2-1.3-4.3-1-6.5l.7-2.9c3.3-1.1 4.8-.7 4.6 1.3.6 2.2-1 5.8-2.2 7.5a2.5 2.5 0 001 3.5c4 1.7 7.6 4 9 8.7.8 3 5.6 1.8 4.7-1.3z" fill="#F5855B"/><path d="M504.6 126.3c1-3.5-1-9.6-3.7-12.3-2.6-2.8-5.8-4.6-9-6.5 2.3-4 3.2-8.7 2.7-13.2-.2-2-1-4-2.5-5.5-1.5-1.3-4-1.5-5.4 0a6 6 0 00-1.1 2.7 35 35 0 00.7 15.5 10.5 10.5 0 00-10.4 7.2c-1.4 3.8-.5 12-.5 12s20.3 1.5 29.2.1z" fill="#fff"/><path d="M506.4 126.8c1.9-10-5.8-16.2-13.5-21l.7 2.6c3-5.7 6.3-20.5-3.2-22.4-10.2-2-7 16.4-6 21.5l1.8-2.4c-11.8.7-13.7 11.4-12.8 21.2a2 2 0 002 1.8c9.8.7 20 1.4 29.7 0 2.4-.3 1.4-3.9-1-3.6-9.4 1.3-19.3.5-28.8-.1l2 1.8c-.8-7.3-.6-16.8 9-17.4a1.9 1.9 0 001.7-2.3 44.5 44.5 0 01-1.1-11.6c-.5-3 .5-3.8 3-2.3 2.4-.2 3.4.8 3 3.1a19.6 19.6 0 01-2.5 10.8 2 2 0 00.6 2.5c6 3.8 13.3 8.6 11.8 16.8-.4 2.4 3.2 3.4 3.6 1z" fill="#fff"/></svg>