<svg width="642" height="734" fill="none" xmlns="http://www.w3.org/2000/svg"><path d="M349.8 202.5a246.1 246.1 0 00-33.5-65.5c-11.8-16-26.3-29.8-40-28.7-13.7 1-23.8 23-16.3 43.6-6-17.3-12.4-35.5-23-47s-23.8-13.9-33-6.1c-9.2 7.7-13.4 25.4-10.6 43.3-8.5-22.9-19.7-45.5-34.7-58.4-15-12.8-34-12.7-41.5 5.7-3.6 9-4 20.6-4.5 32-7-15.4-14.4-31-24.2-42.4-9.8-11.4-22.8-17.5-31.7-10.4-8 6.4-11 22-9.7 37.3 1.1 15.4 7.2 40.8 11.7 55.8 99.3 18.6 184 29.1 288.9 41.3" fill="#B8DDF0"/><path d="M352.2 201.8c-6-17.6-13.9-34.6-23.5-50.6a127.5 127.5 0 00-32.3-38.5c-9.8-7-23-10.5-32.3-.8-10.1 10.5-11 27.4-6.5 40.7l4.8-1.4c-4.5-13.1-9-26.6-16.4-38.5-6-9.6-14.8-19-26.6-20.7-26.6-3.7-31 32.2-28.4 50.7l4.8-1.3c-5.5-14.8-11.9-29.6-20.8-42.7-7-10.3-15.9-20.5-28-24.7-9.7-3.5-20.7-1.6-27.5 6.6-9 11-8.8 27.4-9.3 40.8l4.7-1.3c-6.2-13.4-12.4-27.1-21.4-38.9-6.7-8.8-17.2-19-29.4-18C53.4 64 48 74.5 46 84a94 94 0 00.6 36.4c2.4 14.2 5.7 28.2 9.9 42A2.5 2.5 0 0058 164a3537 3537 0 00222.4 33.5l67.2 8c3.2.4 3.2-4.6 0-5a4826.9 4826.9 0 01-224.8-30.1c-21.2-3.5-42.4-7.2-63.5-11.2l1.8 1.7c-4-13-7.1-26.3-9.5-39.8-2.5-13.5-4.3-28.3.6-41.5 2.4-6.5 7-12.3 14.6-11.6 7.5.7 13.8 6 18.7 11.3 11.3 12.2 18 28.3 25 43.2 1 2.4 4.6 1 4.7-1.2.4-11.9 0-26.8 7.4-36.8 6.7-8.9 18.1-8.8 27.3-4a67.8 67.8 0 0123.8 25.4c7.1 11.6 12.5 24 17.2 36.7a2.5 2.5 0 104.8-1.3c-2.3-16.2 2.1-51.8 26.8-43.5 10.2 3.4 17 13.1 21.9 22.2 5.5 10.3 9.3 21.4 13.1 32.5 1 3 5.9 1.7 4.8-1.4-4-11.8-3.7-28.1 6.5-37 10.7-9.3 25.3 2 33 9.8 21.5 21.3 35.8 51 45.5 79.2 1 3 6 1.7 4.9-1.3z" fill="#B8DDF0"/><path d="M315.2 236.8c-3.3-17.6-8.7-35.9-18.8-48.8-10.1-12.8-26-18.3-34.9-8-6.8 7.7-8 21.8-8.9 34.8a95.9 95.9 0 00-16.4-41.7c-8.5-11.3-20.8-17.7-30.7-14-10 3.8-16.3 19-12.6 34-7.9-19.2-17.6-38.5-31.1-50.2-13.6-11.7-32-13.1-40.5 1.6-6.2 10.7-6 26.7-5.7 41.6.1 3.1.3 6.6 1.8 9.3 1.8 3.3 4.9 4.3 7.6 5a6490.7 6490.7 0 00191.5 48.7" fill="#fff"/><path d="M317.6 236c-4.2-22-12-52.7-35.4-62-8.6-3.5-18-2-23.7 5.7-7.3 9.7-7.6 23.6-8.4 35.1l4.9-.6c-3.7-21.4-13.3-50-36.2-57.4a20.3 20.3 0 00-23 6.8c-6.6 8.5-7.7 20-5.4 30.2l4.8-1.3c-8.3-20.3-18.8-45-38.7-56.3a30.2 30.2 0 00-25.7-3.2c-8.7 3.4-13.5 11.8-15.7 20.5-2.8 11.3-2.9 24.2-1.8 35.8.3 4 1.4 8 4.6 10.6 4.7 3.8 12.3 4.5 18 6a6323 6323 0 00180 45.6c3 .7 4.4-4 1.2-4.8a6538.9 6538.9 0 01-181.9-46.1c-4.6-1.3-13-1.9-15.7-6.4-2.7-4.6-1.5-13.2-1.5-18.5 0-10.3.3-22.2 6.2-31.1 5.3-8 14.9-9.8 23.5-7a52.5 52.5 0 0125.2 21.8 184.7 184.7 0 0117.6 34.4c1.2 2.9 5.5 1.9 4.8-1.3-2-9-1-19.6 5.2-26.8 6.2-7 15.5-5.8 22.8-1.3 16.9 10.4 23.7 32.7 26.9 51.1.5 3 4.7 2 5-.7.6-10 .8-21.6 6.2-30.4 5.5-9 15.6-8.6 23.8-3.3 18 11.4 23.9 36.8 27.6 56.3.6 3.2 5.4 1.8 4.8-1.3z" fill="#fff"/><path d="M267.6 239.2a43 43 0 00-10.9-20.2c-6.1-6.8-13.5-12-20.7-11.8-7.1.2-13.6 7-13.7 17-1.9-6.8-4.7-13.5-8.8-18.5-4-5-9.7-7.8-14.3-5.9-4.5 1.9-7.3 9.2-5.2 16a84.7 84.7 0 00-16.7-25.9c-7-6.2-16.8-7.4-21.1.4-2.8 4.8-2.9 12-1.9 18.8.2 1.8.7 3.6 1.5 5.3 1.6 3.1 4.5 4.2 7 5 35.2 11.2 70 18.5 104.8 19.9" fill="#B8DDF0"/><path d="M270 238.6c-3-13.6-14.2-28.7-28-33-12.7-4-21.8 6.7-22.3 18.6l5-.7c-3-10-8.5-24.4-20.4-26.6-11.1-2-15 10.9-12.8 19.5l4.6-2c-5.4-10.9-11.7-25.3-23.6-30.5-10.6-4.6-19.4 1.9-21 12.8-.8 5.4-.7 12.2 1.4 17.4 2 5.4 6.9 7 12 8.6 16 5 32.3 9.2 48.7 12.5 17.8 3.5 35.8 5.7 54 6.5 3.1.1 3.1-4.9 0-5a393.6 393.6 0 01-95.8-17.1c-3.4-1-8-1.8-11.1-3.7-3.6-2.2-4-6.4-4.4-10.3-.5-6.3-.3-17.1 7.9-18.2 14-1.9 22.7 19.8 27.6 29.6 1.2 2.6 5.2.8 4.5-2-.9-3.5-1-7.8 1.4-10.9 3-4 7.6-2.3 10.9.3 6.2 5 9 13.2 11.2 20.5a2.5 2.5 0 005-.7c.2-5 2-10.3 6.5-13 4.6-2.8 9.9-1.1 14.1 1.4 9.9 6.2 17 16 19.7 27.3.7 3.1 5.6 1.8 4.8-1.4h.1zM116 373.8c7-11.4 17-29.1 25.5-39.5 1.8-2.3 4.3-4.7 7.1-4.3 2.2.4 3.6 2.3 4.9 4.1l17 24a572 572 0 0133.2-52.7c1.9-2.5 5-5.4 7.7-3.9 1.1.8 2 1.8 2.4 3 11.4 23.3 19.1 48 23.1 73.5-35.8.1-83.6-.3-119.3-2.5" fill="#B8DDF0"/><path d="M118.1 375.1c6.6-10.8 12.8-21.8 20-32.2 1.7-2.6 3.6-5 5.6-7.4 4.7-5.4 7.9.3 10.5 3.9l14.2 20a2.5 2.5 0 003.4.9c.3-.2.7-.5.9-1a606 606 0 0128.8-46.4c1.6-2.3 3-5.1 5-7 4.4-4 5.6 1 7 4.1 10.2 21.8 17.2 45 20.9 68.7l2.4-3.1c-39.8.1-79.6-.2-119.3-2.5-3.3-.2-3.2 4.8 0 5 39.7 2.3 79.5 2.6 119.3 2.5a2.5 2.5 0 002.4-3.2 261.5 261.5 0 00-21.7-70.8c-1.2-2.3-2.2-5.3-4.4-6.9-3.5-2.3-7.3-.4-9.9 2.4-4.4 4.6-7.8 10.8-11.3 16.1a574.8 574.8 0 00-23.6 38.7h4.3c-5.9-8.4-11.5-17.1-17.8-25.1-4.5-5.7-10.1-5.2-14.7.1-10.6 12-18.1 27-26.4 40.7-1.7 2.7 2.6 5.2 4.3 2.5h.1z" fill="#B8DDF0"/><path d="M452.4 158.9c-3.5 2-8.5-2.4-11-5a41.5 41.5 0 01-3.2-4.3c-2-2.8-5-5-8.3-6-1.4-.4-2.7-.9-4-1.5a4 4 0 01-2.3-3.2 4.5 4.5 0 013-3.8 8 8 0 015-.2c2.2.6 4.3 1.8 6 3.4 1.5 1.7 2.7 4 4.7 5.2-1.1-5.1-6.5-7.8-9.7-12-.5-.5-.8-1.1-1-1.8 0-1.2.5-2.4 1.4-3.2 2.1-2.8 4.7-5.2 7.6-7.1 1-.7 2-1.1 3-1.4 2.2-.4 4.1.8 5.7 2a65.5 65.5 0 0114.8 15.4c1.3 2.5 2 5.4 1.9 8.2-.2 1.7-.1 12.2-1.3 13.6-3.1 3.8-8-.7-12.3 1.7z" fill="#D37C62"/><path d="M452 157c-6.8 2.7-12.4-10-17-13-1.5-1-3-1.7-4.6-2.3-1.2-.3-2.3-.7-3.5-1.2 1.6-3.7 3.8-4.7 6.4-3 3.4 1.7 5.2 5.3 8.1 7.6 1.4 1 3.2-.7 2.8-2.1-.9-2.8-2.5-5.3-4.6-7.2-2.6-2.6-7.5-5.3-4.3-9.2 1.4-1.8 3.2-3.5 5-4.8 4.3-2.7 7-1 10.4 1.6 2.9 2.5 5.6 5.1 8 8 4.9 5.7 5.5 9.9 5.3 16.9-.1 2 .3 5.8-.7 7.5-1 1.6-9.1.4-11.3 1.3-2.3.9-1.3 4.5 1 3.6 4-1.6 9.9 2 13.1-2.2 1.8-2.3 1.4-6.4 1.6-9.1.1-3.3.4-6.7-.2-10-1-5-4.3-8.8-7.7-12.4-3.3-3.7-7.8-8.7-12.6-10.4-4.8-1.8-9.3 2-12.5 5.2-2.6 2.5-6.1 6-4.3 9.8 2.4 5 8.5 6.8 10.2 12.4l2.7-2.1c-3-2.3-4.6-5.8-8-7.6a12.4 12.4 0 00-7.5-1.5c-4.6.8-8 6-4.3 9.8 2.2 2.2 5.7 2.4 8.3 3.8 3.8 2 5.4 5.7 8.3 8.8 3 3.3 8 7.3 12.9 5.5 2.1-.9 1.2-4.5-1-3.6z" fill="#D37C62"/><path d="M451.7 141.5c3.5-2.2 11.1-5.1 12.3-8.4.8-2.5-2-6.3-3.2-8.7a184.4 184.4 0 00-23-34.3 11.4 11.4 0 00-6.7-3 17 17 0 00-7.5 2 29.6 29.6 0 00-12.8 8.8 7 7 0 00-1.6 5.3 9 9 0 001.5 3l25.7 38.5a6 6 0 002.5 2.6c1.5.5 2.1-.6 3.5-1.3 2.9-1.4 6.5-2.3 9.3-4.5" fill="#B8DDF0"/><path d="M452.6 143.1c4-2.3 9.2-3.9 12-7.6 2.8-3.4.4-7.2-1.4-10.5-3.3-6.6-7-13-11.1-19.2-3.7-5.5-7.4-11.9-12.3-16.5a13 13 0 00-13.8-3.2 36.8 36.8 0 00-15.6 9.2c-4 4.6-3.4 8.7-.2 13.5l13.4 20 8 12c1.5 2.3 3 5.7 5.4 7.4 2.1 1.5 3.6.8 5.7-.3 3.3-1.7 6.9-2.8 10-4.8 2-1.4 0-4.6-2-3.3a53 53 0 01-7.8 3.8c-.8.6-1.7 1-2.6 1.5-2-.1-3.5-3.2-4.4-4.6l-11.3-16.8c-3.6-5.5-8.2-11-11.2-16.9-1.5-3-2.7-6-.3-9 1-1.2 2.3-2.2 3.7-3.1 2.5-1.6 5-3 7.8-4 4.2-1.9 8-2.6 12 .7 2.4 2 4.2 4.9 6.1 7.5 3.7 5 7.3 10.2 10.5 15.5 2.9 4.6 6.6 10 8.3 15.2 1.3 3.8-1.3 5-4.3 6.7l-6.4 3.5c-2.1 1.3-.2 4.5 1.9 3.3z" fill="#B8DDF0"/><path d="M328 250.6c-5.6-2.5-12.2-2-18.2-.5-7 1.9-13.7 5.4-18 11a49 49 0 00-7.6 24c-2.2 16.6 2.8 33.6.6 50.3a57.8 57.8 0 001.8 28.5c3.7 8.3 6.3 11.2 15.7 15.7 13.3 6.3 19.1.6 27.6-2.6 7.8-3 15.5-7.1 20.4-14a39.6 39.6 0 006.4-18c.9-6.3.9-12.7 0-19-.9-6.5-2.7-12.9-4.2-19.3-2.6-10.6-4.5-21.3-8.8-31.3a43.8 43.8 0 00-21.1-23.7" fill="#FDC87A"/><path d="M413.8 152c-2.5.6-13.3-3.3-15.8-2.7-4.8 1.1-15.3 11.6-20.3 11.8 0 0 2-25.8 1.4-30.6l7.7-3.6c-2.6 3.2-4 2.6-7.8 1.2a13 13 0 01-9.1-13.5c.8-7.5 5.2-12.5 12.4-10.1l2.8-1.2-2.4-11a21.6 21.6 0 0020.4-22c5.5-2 9-4.8 13.4-8.6l1.4.7c8.9 10 13.5 32.5 13.5 32.5 6.7 1.5 22.6 5.9 22.6 5.9-4.2 2.6-15.1 10.2-19.5 12.5 0 0 .8 22.1-1.1 25.2-3.4 5.5-12 6.5-20.3 5.1l.7 8.4z" fill="#D37C62"/><path d="M413.8 150c-5.9.8-11.8-4.3-17.7-2-6.6 2.5-11.6 10.3-19 11.3l2.4 1.8A538.4 538.4 0 00381 131c0 1.8-1.6 1 0 .7 1-.3 1.7-.6 2.5-1.1l4.3-2-2.3-3c-3.3 3.8-9.8-.5-12-3.8a11.5 11.5 0 01-1.3-9.4c1.1-4.4 3.7-6.8 8.3-6.5 1.8.3 3.6 0 5.2-.7a2 2 0 001.3-2.3l-2.4-11-1.8 2.4a24 24 0 0022.3-24l-1.4 1.9a50 50 0 0014.2-9.1l-2.3.3c2.9 1.3 4.5 5.2 6 7.9a114.7 114.7 0 018.1 24.2 1.8 1.8 0 001.3 1.3c7.6 1.7 15.1 3.8 22.6 5.9l-.4-3.5c-6.6 4.1-12.8 8.8-19.5 12.5a1.9 1.9 0 00-1 1.7c.2 5.3.3 10.7 0 16.1 0 2.5.2 5.9-.9 8.2-2.8 5.8-13.1 5-18.2 4.2-1-.2-2.5.4-2.4 1.8l.8 8.4c.2 2.4 4 2.4 3.7 0l-.7-8.4-2.4 1.8c7 1 16.4 1.4 21.5-4.6 3-3.6 2.4-9.6 2.4-14v-8.9-3.4c-.1-1 .4-1.1-.2-.6-1 1.1 1.4-.3 1.6-.4l2.4-1.5 5-3.3 9.8-6.4a1.9 1.9 0 00-.5-3.4l-13.6-3.6-5.2-1.3c-1-.2-4-1.5-2.6.3-.5-.7-.6-3-.9-3.8a115 115 0 00-5.4-16.6c-2-4.6-4.6-11.7-9.4-13.9a2 2 0 00-2.3.3 44.4 44.4 0 01-12.5 8.2 2 2 0 00-1.4 1.8 20.2 20.2 0 01-18.5 20.1 2 2 0 00-1.8 2.4l2.4 11 1.3-2.3c-3.9 1.5-7.7-.5-11.4 2.3-4 2.8-5.6 8.5-5.2 13.2.8 8.3 13 19 20.1 11.2a1.9 1.9 0 00-2.3-3l-7.7 3.6a1.8 1.8 0 00-1 1.6c1.2 10-.5 20.7-1.3 30.7 0 1.3 1.3 2 2.4 1.8 6.7-1 12.1-7.5 17.8-10.7 5.7-3.3 11.8 2.3 17.8 1.6 2.4-.3 2.4-4 0-3.7z" fill="#D37C62"/><path d="M370 107.3c-1.8-5.3-5-12.6-6.3-18.1-1.2-5-1.7-10.2-1.3-15.3.6-6.4 4.7-11.6 9.6-15.8 5-4.1 12-6.3 17.4-10 3.5-2.3 7-4.9 10.2-7.7 3-2.7 5.4-6 9.4-6.9 3.9-1 8.4-.2 11.2 2.7 3.1 3.3 3.3 8.3 3.2 12.8 1.6-.4 4-.6 5.5.7 2.8 2.5 3.3 4.3 3.6 7.8.4 3.6-3.3 7.3-6.1 9.5a9 9 0 01-2 1s-1.4-1.5-4.8-4.4a50 50 0 01-17.9 9.1c2.3 8.7-.2 11.9-5.1 14.7a26 26 0 01-9.8 3.3c.8 4 1.7 8 2.8 12-9.6-1.2-12.4-.6-19.6 4.6" fill="#182B84"/><path d="M441.2 280l-1.1 7.6-.2-.2 1.3-7.4z" fill="#F0E4D7"/><path d="M438.8 279.3l-1.2 7.6 4.2-1-.2-.2.7 2.4 1.3-7.5a2.6 2.6 0 00-1.8-3 2.5 2.5 0 00-3 1.7l-.8 4.4c-.3 1.8-1.3 4.3.3 5.7 1.2 1 3.9.9 4.2-1.1l1-7.7a2.6 2.6 0 00-1.7-3 2.5 2.5 0 00-3 1.7z" fill="#F0E4D7"/><path d="M324.3 182.1c10.1-7.6 8-9.4 24.7-13.2 7.9-1.8 15.7-4.9 25.6-3.5l-.6-10.2c.1-1.5.8-3 1.8-4.2.5-.4 10 1.1 15.5 2 8.4 1.2 20.3 1.5 28.6 3.2.7.1.8 11.2 1 13.4l1.7.7a95.3 95.3 0 0117 7 251 251 0 0112.8 84.6 59 59 0 01-7.5 24.5c-.6 1.4-1 2.8-1.3 4.2-1.3-1-1.3-4.2-2.5-5.2.5-2.9-.3-3.3 0-5.4l-4.1 7.6-.2 1c-1.3 9 2.6 33.5.8 39.8-1.5 5.2-7.6 11-7.6 11s-23.8-3.3-26.3-3c-27.3 4.3-41.1 3.8-67.8 4 0 0-5-17-5.9-20.5a2153 2153 0 01-9.7-45.6c3.3-33.5 4.1-86.2 4-92.2z" fill="#F0E4D7"/><path d="M325.6 184.3c5-4 9.3-8.7 15.6-10.8a82.9 82.9 0 0133.4-5.6 2.5 2.5 0 002.5-2.5 855.2 855.2 0 01-.5-10.5c.3-1.7-.5-1.2 1.3-1.3 2.8-.3 6.3.8 9 1.2l8.9 1.2 11.5 1 5 .6c.8 0 6.8 1.3 5.4-.3 1 1 .4 5.1.5 6.4 0 2 0 4 .2 5.9a2.6 2.6 0 001.8 2.4c4 1.6 8.2 2.8 12.2 4.5 2.8 1.3 4.8 2 6 4.9a218.1 218.1 0 019.5 43c1.2 11.3 1.9 22.5 2 33.8 0 5.5-.7 10.9-2.4 16-1.7 5.4-5 10.2-6.3 15.7l4.2-1c-1.8-2.2-2-6.3-1.8-8.9.2-2.6-3.5-3.4-4.6-1.3-1.6 2.9-3.8 5.9-4.6 9-1.3 5.3-.3 11.5 0 16.8.5 6.3 1.2 12.6 1 18.9 0 5.9-3 10.2-7.3 14.2l2.4-.6c-9.9-1.4-20.5-3.9-30.4-2.4-21.4 3-42.8 3.2-64.4 3.4l2.5 1.9a727.5 727.5 0 01-14-58.4l-1.1-5.8c-.5-2.6 0-5.2.2-7.8.6-6.6 1-13.2 1.4-19.8a1330 1330 0 001.6-40c.3-8.6.6-17.3.4-26 0-3.1-5-3.1-5 0 .4 20.3-.7 40.7-1.7 61-.4 6.8-.8 13.8-1.4 20.7-.4 5.1-1 9.8 0 14.8 2.3 11.7 4.8 23.4 7.4 35.1 2 9.3 4.7 18.4 7.4 27.5a2.5 2.5 0 002.4 1.8c15.1-.1 30.4 0 45.5-1.3 7.5-.6 15.2-2.4 22.7-2.7 3.9-.1 7.8.6 11.6 1l12.6 1.7c3.1.3 4.3-1.2 6.3-3.6 3.2-3.7 5.6-7.6 5.9-12.6.3-5.2-.3-10.6-.6-16-.4-6-1.2-12.3-.8-18.5.2-3.6 2.5-6.5 4.3-9.8l-4.7-1.2c-.3 4.3.4 8.9 3.2 12.4 1.2 1.5 3.7.6 4.2-1.1 1.5-6 5-11.4 6.8-17.4 1.4-5 2.1-10.3 2-15.6 0-13-1-25.9-2.6-38.7a213.8 213.8 0 00-8.2-37c-.6-2-1.1-5.5-2.7-7.1-1.5-1.6-5.1-2.7-7.3-3.6-4.1-1.8-8.4-3-12.5-4.7l1.8 2.4-.3-8.5c-.1-2 .2-5-1.2-6.5-2-2.2-8.4-2-11.2-2.2l-15.6-1.5c-4.5-.5-8.9-1.3-13.3-1.8-2-.3-5-1.2-6.9-.3-5.3 2.4-3 12.3-2.8 16.6l2.5-2.5a86.3 86.3 0 00-34.6 5.8c-6.9 2.3-11.3 7-16.9 11.3-2.5 1.9 0 6.2 2.6 4.3z" fill="#F0E4D7"/><path d="M428.8 176a53 53 0 0131.5 15 97 97 0 0120.2 29c5.4 11.3 9.6 23.3 16.6 33.7 5 7.4 11.4 14 15.6 21.9 4.1 7.8 5.7 18.1.6 25.6-5.4 7.9-16 10-25.6 10.2-8.5.2-17.2-.5-24.5-4.7a56.4 56.4 0 01-9.9-7.8l-19-17.5" fill="#F0E4D7"/><path d="M428.8 178.5a56.4 56.4 0 0139.3 25.2c9.3 13 14.2 28 21.4 42 3.4 6.3 7.3 12.3 11.8 17.9 4.9 6.2 10 12.6 11.9 20.4 2 7.9 0 16.2-7.3 20.7a40.4 40.4 0 01-20.8 4.2c-10.1 0-19-2-26.7-8.8-7.8-6.6-14.9-13.7-22.3-20.5-2.4-2.2-5.9 1.4-3.5 3.5 7.8 7.3 15.4 15 23.6 21.7a40 40 0 0023 9c13.5 1 32.4-.6 38.2-15.2 6.6-16.6-7.3-31.2-16.3-43.4-11.4-15.7-16-35-26.8-51.2-10.5-16-26-28.6-45.5-30.5-3.2-.3-3.2 4.7 0 5z" fill="#F0E4D7"/><path d="M445.5 155.7c-7.2 1-11.7-3.2-14.3-9.5a38 38 0 00-3-6.1c-1.7-2.6-4-4.8-4.8-7.9l-1.9 2.4c7.8-.2 10.6 8.1 14.5 13.3 1 1.3 2.4 1.8 1 3-1.5 1.3-1.5-.2-2-1.4l-4.6-9.8-2.9 2.3c3 3.4 5.7 7 8 11a1.9 1.9 0 003.5-1.5c-1.1-5.7-6.1-8.3-9.8-12.3l-2.3 3 2.5 1.4a1.9 1.9 0 002.8-1.7c.1-1 0-2-.6-3l-2.6 2.6 2.5 1.5c2.1 1.2 4-2 2-3.2l-2.6-1.5c-1.8-1-3.3 1-2.6 2.5l.1 1.1 2.8-1.6-2.4-1.4a1.9 1.9 0 00-2.8 1.7c0 .5.2.9.5 1.2 3.1 3.5 8 5.8 8.9 10.7l3.4-1.4a88.6 88.6 0 00-8.7-11.8c-1.5-1.7-3.7.5-3 2.3 2 4.3 4 13 9 15 3.2 1.2 6.5-.7 6.6-4.1 0-2-1-3.4-2.2-5-2.2-3-4-6-6.1-9-3.1-4.4-7.3-7.8-12.8-7.6a1.9 1.9 0 00-1.9 2.3c1 3.8 3.7 6.2 5.7 9.5 1.9 3.2 2.6 6.7 4.6 9.8a16 16 0 0015.5 7c2.4-.3 2.4-4 0-3.8zM462.1 115.8c.6-3.5-.1-7.9-3-10.2a12.2 12.2 0 00-5.6-2c-2-.3-4.4-1.1-6.2 0a3.3 3.3 0 00-1 4.3c.8 2 2.5 2.5 4 3.5 2.3 1.3 4.4 2.8 6.4 4.5.9.9 1.5 2.4 2.9 2.7a2 2 0 002.3-1.3c.8-3-1-4.5-2.8-6.7a18 18 0 00-8.8-5.8c-2.3-.7-3.3 3-1 3.6 2.2.7 4.2 1.9 5.9 3.5 1.4 1.3 2.3 3 3.7 4.3l-.6-1.4v1.5l2.3-1.3c.8.2.3.2 0-.3l-.7-1a62.2 62.2 0 00-9-6.4l-1.2-.6 2.9.5c1 .1 2.1.4 3.2.8 2.4 1 3.2 4.2 2.7 6.7-.4 2.4 3.2 3.3 3.7 1z" fill="#D37C62"/><path d="M453.7 104.8c2.3-5.8-2.3-10.8-7.1-13.3-2.3-1.3-5.3-2.6-7.9-1.5-2.2 1-2.6 3.5-1.5 5.5 1.4 2.6 4.6 4.2 7.3 5.4 1.6.8 5.2 2.8 7 1.3 4.4-3.6-7.5-9-9.8-9.5-1.3-.3-2.9.9-2.3 2.3l.2.4a2 2 0 001.8 1.4c3-.2 4.8-4.5 1.4-5.8-3.5-1.4-5.4 2.8-3 5.1 1.7 1.7 4.3-1 2.6-2.6l-1-.5 1.8 1.4-.2-.4-2.3 2.3c2.9.7 6.6 2.3 8 5l-.1-1.4-.1.3 1.3-1.3a24 24 0 01-6-2.5c-.9-.5-2.6-1.2-3-2.2-.8-1.5.3-.9 1.5-.5 4.1 1.2 9.7 5.1 7.7 10-.9 2.3 2.8 3.3 3.6 1z" fill="#D37C62"/><path d="M444.4 95.3a6.2 6.2 0 00-3.3-6.1 32.9 32.9 0 00-8.5-1.6c-.7 0-1.6.1-1.7.8 0 .3.1.7.4.9 1.2 1.7 3.4 2.4 5.5 2.9a44.9 44.9 0 004.3.5.5.5 0 000-.7l-.6-.4c-1.3-.4-2.6-.8-4-1-.3 0-.8 0-.9.4" fill="#D37C62"/><path d="M446.2 95.3c.4-5.6-4-8.3-9-9.1-2-.3-5.2-1.2-7 .2-1.6 1.2-1.2 3.2 0 4.5 1.7 2 4.2 2.7 6.6 3.2 1.6.3 4.5 1.3 5.8-.3 3-3.7-6-6.4-8.3-4.2-1.7 1.7 1 4.4 2.7 2.7l.3-.3-1.3.5c.7 0 2.4.8 3 .6 1.6-1.6 1.7-2.4.1-2.4l-1.4-.3c-1.3-.2-4.7-.8-5-2.5l-.1 1.4c.1-.3 5.6.8 6.4 1a4.5 4.5 0 013.5 5c-.2 2.4 3.6 2.4 3.7 0z" fill="#D37C62"/><path d="M349.5 165.8c9-3 12.1-3.5 19-2.6l2.6 3.3c18.8 27.9 28.6 55.8 16.1 110.3-7.9 34.3-40.9 68.6-67.6 93.4l3.7-24.8c-.5-7.3 5.9-6.5 5.4-13.8C341 326 354 302.1 360.5 290c2.3-4.4 24-36.2 4.8-91.3-5.1-14.8-15.8-33-15.8-33zM446 176.7l-12.7-5.8c-3.6-2-6.9-2.3-9.8-3.1 24 38.3 23 41.6 23.6 77-.1 5.5-.7 11-1.8 16.3-1.7 10 6.6-10.4 4.7 2-1.3 11 6.4 13.6 6.4 13.6s15.4-12.6 10.7-49.6c-1.6-11.8-7.4-38.8-21-50.4" fill="#FDC87A"/><path d="M419 267c4.8-6.7 5.3-7.4 8.3-15a37.7 37.7 0 003-20.9c-1.3-5.9-4.6-15.7-9.7-19-10.5 6.8-18.6 20-2 54" fill="#FFB607"/><path d="M421.3 268.2c6.3-9 11.5-19.7 12-31 .3-9.2-3.7-21.7-11.4-27.3a2.4 2.4 0 00-2.5 0c-20.4 13.6-11.6 39.3-2.9 57.5 1.4 2.9 5.7.3 4.3-2.5-7.3-15.3-16.6-39 1.1-50.7h-2.5c7.4 5.4 9.9 19.3 8.3 27.7a60.5 60.5 0 01-10.7 23.8c-1.9 2.6 2.4 5.1 4.3 2.5z" fill="#FFB607"/><path d="M419 209c7 22.5 5.7 44.4 0 67.1-.5 2.4 3 3.4 3.7 1 5.8-23.3 7-46 0-69-.7-2.3-4.3-1.3-3.6 1z" fill="#182B84"/><path d="M431.6 223.8c-2.8 2.3-4.7 5.4-7.3 7.9-1.8 1.7.9 4.3 2.6 2.6 2.6-2.5 4.6-5.6 7.4-7.9 1.9-1.5-.8-4.2-2.7-2.6zM433.4 239.4c-3 2.4-6.2 4.6-9.1 7-1.9 1.7.8 4.3 2.6 2.7 3-2.5 6.1-4.7 9.1-7 2-1.6-.8-4.2-2.6-2.7z" fill="#182B84"/><path d="M425.7 232c-5.1-4-10.6-7.5-15.6-11.8-1.8-1.5-4.5 1.1-2.6 2.7 5.2 4.4 10.9 8.2 16.3 12.3 2 1.5 3.8-1.8 2-3.2zM424.5 253.8c-5.1-4-10.7-7.3-15.9-11.2-1.9-1.4-3.8 1.8-1.9 3.3 5.2 3.8 10.8 7.2 16 11.1 1.9 1.5 3.7-1.8 1.8-3.2zM377.2 111.7c2.7 1.9 5.4 3.7 8.2 5.3l-.4-2.9c-2 2.2-4.2 4.2-6.5 6-2 1.4 0 4.7 1.9 3.2a55 55 0 007.7-7.3 1.9 1.9 0 00-.2-1.6l-.6-.6a116 116 0 01-8.2-5.3c-2-1.5-3.8 1.8-1.9 3.2zM423.1 93.8c-.3 4.6.3 11.4-2.5 11.6-3.2.2-2.4-8-1.6-12.8" fill="#182B84"/><path d="M421.3 93.8l-.3 5.8a14.5 14.5 0 01-.6 3.8c-.1.3.4.3.2 0-1.4-2.7-.3-7.4.2-10.3.4-2.3-3.2-3.3-3.6-1-.6 3.5-2.8 13.6 2.4 15 6.3 1.7 5.2-10.1 5.4-13.3.2-2.4-3.6-2.4-3.7 0z" fill="#182B84"/><path d="M424 91c-4.5-2.5-9-2-13 1-2 1.5 0 4.8 1.8 3.3 3-2.3 6-3 9.3-1.1 2.1 1.1 4-2.1 1.9-3.3zM424.6 84.7a18 18 0 00-12.5-.8c-2.3.8-1.3 4.4 1 3.7 3.2-1 6.6-1 9.6.4 2.2.9 4.1-2.3 2-3.3zM377.7 132.4c4.4-.2 8.7-.3 12.6-2.7l-2.6-.7c3 4.4 5.8 9 10.4 12a60.8 60.8 0 0019.1 7.3c2.4.5 3.4-3 1-3.7a60 60 0 01-17.2-6.2c-4.5-2.7-7.3-7-10-11.3a2 2 0 00-2.7-.7c-3.2 2-7 2-10.6 2.2-2.4.1-2.4 3.9 0 3.8zM417.5 151.3c-13.3-2.6-26.8-3-40.2-4.9-2.4-.3-3.4 3.3-1 3.7 13.4 1.9 27 2.3 40.2 4.8 2.4.5 3.4-3.1 1-3.6zM454 99.3a99 99 0 01-18.2 11.2 1.8 1.8 0 00-.9 1.6c.5 5.7.6 11.3.3 17-.3 6.1-1.9 12.5-8.7 13.8-2.4.5-1.4 4.1 1 3.7 11.6-2.4 11.5-15 11.4-24.5 0-2.3-.9-7.3.5-9.2 1.2-1.6 5.7-2.9 7.6-4 3.4-2 6.6-4.4 9.7-7 2-1.5-.8-4.1-2.6-2.6z" fill="#182B84"/><path d="M364.7 661c-6.3 9.4-8.8 42.9-7.7 43 7.6 1.1 11.5 1.2 19.7 1.3 1.3-7.5-1.3-12.5 3.1-17.5 1.4-1.6 5.4-4.5 9.4-.3 3.2 3.3 2.8 6.8 7.3 12 7.8 8.9 20 11.3 40.2 9.6 9.1-.7 22.2-1.6 37.5-6a23.1 23.1 0 00-10.1-12.6c-6.5-4.2-10.2-3-20-3.1-18.6-.1-22.6-13.3-43.7-26.6-13.9.8-21.8-.5-35.7.2z" fill="#182B84" stroke="#182B84" stroke-linecap="round" stroke-linejoin="round"/><path d="M426.6 682.1a68.8 68.8 0 00-4.4 10c-.8 2.2 2.8 3.2 3.6 1 1.1-3.2 2.5-6.2 4-9 1.3-2.2-2-4-3.2-2zM419.3 676.6l-5.8 9.2c-1.3 2 2 4 3.2 1.9l5.9-9.2c1.3-2-2-4-3.3-1.9zM412.6 670.2l-6.2 7.7c-1.5 1.9 1.2 4.6 2.7 2.7l6.1-7.8c1.5-1.8-1.1-4.5-2.6-2.6z" fill="#F5855B"/><path d="M316.3 600c-3.8 11.5-15.5 16.6-16.1 27.5-.8 12.7 10.2 20.9 8.2 32.1-.9 5.2-3 9.2-6 11.1a101.2 101.2 0 01-24.3-36c-9.3-26.2.2-36.7 5-38.6 2-.7 7-2.5 8.2-5.9a5.8 5.8 0 00-.5-5.4c-2.7-3.5-10.7-2.9-18.7.9v-21.5c11.2 0 34.2-1 41.7 6.2 12.2 18.7 5 21.8 2.5 29.6z" fill="#182B84" stroke="#182B84" stroke-width="2" stroke-linecap="round" stroke-linejoin="round"/><path d="M301 625l-7.2-2c-2.4-.6-3.3 3-1 3.7l7.1 2c2.3.7 3.3-3 1-3.6zM303.5 617.2c-2-1-4.2-1.6-6.4-2a2 2 0 00-2.3 1.3 1.9 1.9 0 001.3 2.3c2 .3 3.8.9 5.5 1.7 2.2 1 4-2.2 1.9-3.3zM309.3 610.5c-2.5-1.5-5.1-2.6-7.9-3.2-2.3-.5-3.4 3.1-1 3.6 2.5.6 4.8 1.5 7 2.8 2 1.3 3.9-2 1.8-3.2z" fill="#F5855B"/><path d="M307.8 297.2c-2.5 2.8-6.8 3.7-10.3 4.9-4.5 1.4-8.4 2.1-13 .5-2.2-.9-3.2 2.8-1 3.6a22 22 0 0015-.5c4.1-1.4 9-2.5 12-5.8 1.5-1.8-1-4.5-2.7-2.7zM436.2 290c-.5 16.1 5.8 36.6-6.1 49.8-1.6 1.8 1 4.5 2.6 2.7 13-14.5 6.7-34.9 7.2-52.5 0-2.4-3.7-2.4-3.7 0z" fill="#0099FB"/><path d="M435.8 121.2a40.1 40.1 0 00-6.8-2c-.5 0-1 .1-1.4.3a2.4 2.4 0 00-.7 3c.5 1 1.2 1.7 2.1 2.3 2 1.7 4.3 3 6.7 4.2" fill="#fff"/><path d="M436.3 119.4c-3.3-1.3-11.3-4.4-11.4 2 0 2.1 1.4 3.7 3 5a36 36 0 006.9 4.2c2.1 1 4-2.2 1.9-3.2a24.9 24.9 0 01-7.4-4.8c-.3-.3-1-1-.7-1.5.3-.3 1.8.3 2 .3l4.7 1.6c2.2 1 3.2-2.7 1-3.6zM432.4 95.5c7.5 2 15 4.2 22.3 6.7 2.3.8 3.3-2.8 1-3.6-7.3-2.6-14.8-4.8-22.3-6.7-2.3-.6-3.3 3-1 3.6z" fill="#182B84"/><path d="M434.8 93.7c-.3-9.8-3-19.4-7.8-28-1.2-2-4.4-.1-3.2 2 4.5 8 7 16.8 7.3 26 0 2.4 3.8 2.4 3.7 0z" fill="#182B84"/><path d="M459.1 119.6c1.4 2.8 3.4 5.8 4.3 8.7 1.1 3.3 1.2 5.4-1.5 8-1 .8-2.1 1.6-3.3 2.2a102 102 0 01-16.8 7c-2.2.7-1.3 4.3 1 3.6 7.2-2.4 17.2-5.2 22.6-11 6-6.5.2-14-3-20.3-1.1-2.2-4.3-.3-3.3 1.8z" fill="#0099FB"/><path d="M461.3 116l-13.6-8.8c-2-1.3-4 2-2 3.2l13.7 8.8c2 1.3 4-1.9 1.9-3.2z" fill="#182B84"/><path d="M429.4 343a939 939 0 0010.8 120.8c2.4 15.3 2.5 22 .3 37.3-1.6 10.8-6.4 20.3-10 30.6-13.4 38.5-15 70.7-19.3 126.5l-50.4 2.7c-.5-15.4 1.3-28.1-1.3-43.1-5.7-32.8-17.4-67.4-15.1-101 .7-10.3 2.3-20.5 2.4-30.9 0-9.6-1.3-19.2-2.5-28.7a614.4 614.4 0 01-3-113.5 2.4 2.4 0 012.7-1.5c20.1-1 60.6-2.6 60.6-2.6s16.3 2.5 24.8 3.4" fill="#F5855B"/><path d="M427 343a959.3 959.3 0 008.8 107.8c1.5 10.7 3.8 21.5 3.8 32.3 0 10.6-1.7 21.1-5.2 31.2-3.4 9.5-7.3 18.8-10.1 28.6a301.4 301.4 0 00-9.6 47.6c-2.9 22.5-4.3 45.2-6 67.7l2.6-2.5-50.5 2.7 2.5 2.5c-.4-14.6 1-29.3-1.4-43.8-2.5-15.3-6.4-30.4-9.6-45.6a223.9 223.9 0 01-5.7-47.4c.2-15.4 3.4-30.5 2.5-45.9-1-16.2-3.7-32.3-5-48.6a614 614 0 01-.7-78.9c0-.7-.2-5.4.3-5.9 1.1-.8 4.4-.3 5.7-.4 10.6-.5 21.2-1 31.9-1.3 7.6-.4 15.4-1 23-1 .3 0 .9 0-.2-.1l1.6.2 6.9 1c5.6.8 11.2 1.6 16.8 2.2 3.2.4 3.2-4.6 0-5-8.2-.8-16.5-3-24.8-3.4-5.9-.3-12 .5-17.9.8l-32.6 1.3c-3.7.2-9.8-.7-13 1.2-1.8 1-2.1 2.6-2.4 4.5-.5 4.2-.5 8.6-.7 12.8-1.4 33.8 0 67.8 4 101.4 1 8 2 16 2.2 24 .2 8.4-.8 16.7-1.6 25a182 182 0 001.4 46.3c2.8 18 7.4 35.5 11 53.3 1.9 8.6 3 17.4 3.4 26.3.1 9-.4 18-.1 27a2.5 2.5 0 002.4 2.5l50.5-2.7a2.6 2.6 0 002.5-2.5c2.8-37 4.3-74.8 14.4-110.8 2.6-9.1 5.8-18 9.2-26.8 3.9-10 6.2-20.5 7-31.2.7-8.8-.4-17.5-1.7-26.3A934 934 0 01432 343c0-3.3-5-3.3-5 0z" fill="#F5855B"/><path d="M423.4 360.8c24 18.7 70.4 72.6 85 98 7.5 12.9 2 30-2 35.3-17.4 23.4-36 33.4-61 48.7-24.8 15.3-55.4 25.3-82 37.3-11.3 5-17.8 17.1-29 22.2-9.8-13.4-23-26.8-33-40.9 6.6-4.3 12.6-18.6 19.3-23 4.9-3.2 16.2-10.4 21.6-15.6 6-5.7 24.7-9 27.8-16.7 8-19.4 23.5-27.3 37.6-42.7.3-.3-74.7-71-68.4-111.4.1-1.7.7-3.4 1.7-4.7 1.7-2 4.6-2.3 7.1-2.5 19.5-1.1 38.8 1.4 58.3.2 5.5-.3 12.1-.6 17 1.8 5 2.3 7.9 4.6 5.7 9.7" fill="#F5855B"/><path d="M421.7 362.5c16 12.6 29.8 28.1 43.2 43.3a410.2 410.2 0 0138.9 50 34.1 34.1 0 012.8 32.6c-2.3 5.5-6.6 10-10.6 14.4-4.1 4.5-8.6 8.7-13.4 12.5-9.7 8-20.6 14.4-31.3 21a326.2 326.2 0 01-37.8 20c-15.2 6.7-30.8 12.6-46 19.2a58 58 0 00-17.2 10.9c-5.4 5-10.4 10.4-17.2 13.7l3.5 1c-10.4-14.2-22.7-26.7-33-41l-1 3.5c5.3-3.8 8.6-9.5 12.2-14.7 4-5.9 8.5-9.2 14.3-13 5.5-3.7 10.4-7.9 15.5-11.9 4.9-3.7 11.2-5.3 16.7-7.9 4.7-2.2 9-4.7 11.3-9.5 3.4-7.2 8-13.9 13.7-19.5 5.6-5.6 11.8-10.7 17.6-16.2 2.4-2.3 8-5.7 5.4-9.4-2.5-3.7-6.7-7-9.8-10.2-6.7-7-13.3-14.3-19.5-21.8-14.5-17.2-29.6-36.7-36.2-58.5a46 46 0 01-1.9-19.6c1.2-3.5 4-4 7.2-4.1 5.8-.3 11.7-.3 17.5-.2 11.3.3 22.6 1 34 .7 5.4-.2 30-2.8 26.2 8-1.1 3 3.7 4.4 4.8 1.4 3.4-9.7-7.8-14.1-15.6-14.8-6.4-.5-13 .4-19.3.4-7.1 0-14.2-.2-21.3-.4-7.2-.3-14.3-.5-21.4-.3-4.6.1-11.3-.4-14.7 3.4-4 4.5-3 13.3-2.2 18.8a109.4 109.4 0 0019 41.8 339 339 0 0030 38.1 481.8 481.8 0 0019.3 20.3c.7.5.4 1.2 0-.4l.6-2.4c-9.5 10.2-21.3 18.3-30 29.4a60 60 0 00-5.2 8c-1.5 2.6-2.3 5.8-4.3 8-3.7 4-10.2 5.8-15 7.8-10.5 4.5-18.7 12.5-28.2 18.8-4.2 2.6-7.9 6-10.9 9.9-3.8 5.1-7 11.8-12.3 15.7-1 .7-1.7 2.2-.9 3.4 10.3 14.2 22.6 26.8 33 40.8a2.6 2.6 0 003.5 1c12-5.8 19-17.8 31.2-23.3 14.1-6.2 28.5-11.7 42.7-17.8a335 335 0 0073.8-42.3c17.4-13.5 37.1-33.3 29.8-57.5-2.6-8.8-9.4-17-14.8-24.3a522.8 522.8 0 00-21.3-26.9 368 368 0 00-51.9-53.4c-2.5-2-6 1.6-3.5 3.5z" fill="#F5855B"/><path d="M335.3 602c-11.9-14-23-28.5-34.9-42.4-1.5-1.9-4.2.8-2.6 2.6 11.9 13.9 23 28.5 34.9 42.4 1.5 1.8 4.2-.9 2.6-2.7z" fill="#182B84"/><path d="M300.7 561.8c7.6-10.9 15.8-22 27-29.5 10.9-7.3 24.1-9.3 34.4-17.6 18.7-15.2 32.1-37.5 56.2-44.9 2.3-.7 1.3-4.3-1-3.6-24.2 7.4-38 29-56.5 44.7-11.1 9.4-26 11.4-37.7 20a120.5 120.5 0 00-25.6 29c-1.4 2 1.9 3.9 3.2 1.9z" fill="#182B84"/><path d="M418.7 466.4c-14.7-8.4-21.8-23-32-35.9-1.5-1.9-4.1.8-2.6 2.7 10.4 13.2 17.6 27.8 32.7 36.4 2.1 1.2 4-2 2-3.2zM423.4 555c-24.7 9-48.5 20.3-71 33.9-2 1.2-.2 4.5 1.9 3.2a398 398 0 0170.1-33.5c2.3-.8 1.3-4.4-1-3.6z" fill="#182B84"/><path d="M376.7 404.1a24.9 24.9 0 00-4.1-3 5 5 0 00-2.2-.8c-.8 0-1.6.3-2.3.7-3.6 1.9-6.1 5.4-8 9-.8 1.3-1.2 3-1.1 4.5.5 2.8 3.7 4.4 4.4 7l.2 2.4c.2 1 .5 2.2.9 3.2 1.1 2.8 2.4 5.5 4 8.2l4.4 8.9c.7 1.5 1.6 2.9 2.7 4 1.2 1.2 3.8 3 5.4 2.5 1.6-.5 2.1-3.4 1.6-5 1.6 2.3 6.1 6 9 5.2 2.8-.7 5.5-5.3 3.8-7.6 1.9 1.2 1.7.8 4 .5 2.2-.3 5.6-1 6.4-3.1.8-2.1.6-5.4-1.5-6.2l1.6-.1c2.3-.2 5.2-3 4.3-5.2-.9-2.1-4.6-4.7-6.7-5.8l-5-2.8.2-.9c.5-1.2.9-2.4 1-3.8a4.5 4.5 0 00-1.1-3.5c-1-1-2.3-1.2-3.6-1.7-2.6-1-4.5-3.4-7-4.6a10.9 10.9 0 00-8.6-.5" fill="#D37C62"/><path d="M378.4 402.4c-2.6-2.2-5.6-5-9.3-4.4-3.6.7-6.6 3.8-8.6 6.6-2 2.7-4.7 6.8-4 10.6a10 10 0 002 3.7c1.5 1.9 2.5 4.1 3 6.5 1 4.9 4 9.4 6.1 13.8 2.1 4.1 3.8 9.1 7.7 12 5.5 4.1 11.3.8 9.7-6l-4.2 2.3c2.8 3.5 8 7.7 12.6 5.4 4-1.8 6-6.8 4.2-10.8l-3.4 3.5c3.4 2 10 1 12.8-2 3-3.3 2-8.8-1.5-11.2l-1.3 4.6c4 0 9-2.7 8.5-7.3-.5-5.6-8.8-9-12.9-11.2l1.1 2.8c1-5.4 2.6-9.4-3.3-12.3-6.6-3.1-11-8-18.8-5.8-3.1 1-1.8 5.8 1.3 4.9 5.6-1.7 8 1.7 12.4 4.2 2 1.1 4.5 1 4.6 4.3 0 1-.8 2.3-1 3.4a2.6 2.6 0 001.1 2.8c2.2 1.2 4.4 2.3 6.5 3.7.7.4 2.5 1.4 2.8 2.2 1 .5.7 1.2-.7 1.9-.3 1-.8 1.5-1.6 1.4-2.6 0-3.2 3.3-1.3 4.7 3 2-4 5.8-6.3 4.5-2.3-1.4-4.4 1.3-3.4 3.4 1.3 2.8-2.9 4-4.8 3-1.6-.9-3-2.1-4.1-3.7-1.7-2-4.7.3-4.2 2.5.9 3.8-3.7-1-4.3-2-1.5-2.4-2.6-5.2-4-7.7-2.4-4.9-4.7-9.3-6-14.6-.8-4-4.6-6.5-3.6-10.9.6-2.4 3-5 4.9-6.5 3-2.5 5-1.2 7.8 1.2 2.4 2 6-1.5 3.5-3.5z" fill="#D37C62"/><path d="M294.8 291.5c-3.2-30.5 4.9-64 12.8-89 2.7-8.4 12-17 23.6-26.2 16.7 20.8 22.2 37.9 30.4 62.9 3.2 10 0 19.7 4.9 29 .9 10.8 5.3 21.7-2.3 42.6-3.3 9 8.8 26.5 13.9 45.5 2.5 9.4-.2 20-.4 28.4-.1 7.1 6 11.6 4.9 15.9 0 0-17.1 10.4-26.4 15L344.5 398s-18.2-14-21-18c-14-20-25.4-56.4-28.7-88.5z" fill="#F0E4D7"/><path d="M297.3 291.5c-2.1-21.8 1-43.7 6-64.8 2.2-8.6 4-18.8 8-26.7 4.9-9 13.9-15.7 21.7-21.9h-3.6a162.6 162.6 0 0126.1 50.8c1.6 4.8 3.6 9.6 4.5 14.5 1.1 5.7.5 11.5 1.4 17.2.6 3.8 2.4 7.1 2.9 10.8.4 3.3 1 6.5 1.3 9.8 1 9.2-.2 18.4-3.2 27-2.3 7-.5 13 2 19.5 3.6 9.5 8.2 18.6 11 28.4 2.8 10.4-1.4 20.3 0 30.6.3 3.4 2.2 8.7 4.4 11.3 1 1.2 1.7-.1.4 1a302.1 302.1 0 01-25.4 14.3l3.5 1-9.4-14.2c-1.1-1.9-2.5-3.6-4.1-5-6.4-5.1-14.1-10-19.3-16.4a121.8 121.8 0 01-17.8-38.3 244.3 244.3 0 01-10.5-49c-.3-3.1-5.3-3.2-5 0 1.8 16.6 5.2 32.9 10.2 48.7 4.3 13.7 9.7 27.6 17.8 39.5 5 7.4 13 12.8 20 18.3 1 .7 2 1.3 2.8 2.1-1.7-1.5.7 1.3 1.3 2.2l9.6 14.6a2.6 2.6 0 003.5.9c7.2-3.6 14.1-7.7 21-11.8 3.7-2.2 7.7-3.4 6.4-8.6-.9-3.8-3.8-6.7-4.5-10.6-1-5.3.8-11.4 1-16.7.8-11.3-2.7-21-7-31.3-3-7.3-9.2-17.2-8.2-25.3.5-4.9 3-9.6 3.9-14.4a83 83 0 00-1.4-32c-1.2-3.8-2.4-6.4-2.7-10.4l-.3-7.8a179.8 179.8 0 00-32.7-74.3c-.9-1-2.6-.7-3.5 0-7.9 6.4-16.5 13-21.8 21.8-4.7 8-6.5 18.5-8.7 27.4-5.5 22-9 45-6.7 67.8.4 3.1 5.4 3.2 5 0z" fill="#F0E4D7"/><path d="M382.5 400.1a419 419 0 01-25.5 15.3c-2 1.2-.2 4.5 2 3.3 8.6-4.8 17-10 25.4-15.3 2-1.3.2-4.6-1.9-3.3z" fill="#0099FB"/><path d="M361.4 246.4c3.4 12.5 5.5 25.4 6.3 38.4.3 5.3.8 11.2-.7 16.5-1.3 4.5-4.5 9-4 13.9.4 3.7 2.6 7.8 4 11.4l3.8 10.2c2.1 5.4 4.3 10.8 6 16.3 1.9 5.6 3.1 11.1 2.9 16.9-.1 2.5-.5 6.6-2.6 8.4a2 2 0 00-.3 2.3c1.3 2.7 2.4 5.4 3.4 8.2 1 2.7 3.8 9 1.7 11.9-1.5 2 1.8 3.8 3.2 1.9 2.6-3.4.5-9.3-.7-12.9a92.7 92.7 0 00-4.3-11l-.3 2.3c5.8-5 3.8-17 2.3-23.3-3-13-9.1-25.5-13.7-38-1.5-4.4-1.8-6.9-.2-11.2 1-2.3 1.9-4.7 2.6-7 1.2-5.3 1-10.9.7-16-.7-13.6-3-27-6.5-40.2-.6-2.3-4.3-1.3-3.6 1zM392 416l10.3 6.5c2 1.3 3.9-2 1.8-3.2l-10.2-6.5c-2-1.4-4 1.9-1.9 3.2z" fill="#182B84"/><path d="M383 403.9c3 1.3 6.1 2.6 9.1 4.1 1.8.8 3.5 2 5 3.2 2.8 2.6 2.5 4.6 3.2 8 .4 2 .8 2.4 2.5 3.7 2.5 2 13.6 9.9 5 12.6a2 2 0 00-1.4 1.8c.2 4.7-2.5 6.7-6.9 7.2-.7-.1-1.5 0-2.2.3-.8.4-.9 1-1.4 1.8-2.6 3.5-5 6.2-9.7 3.5-2-1.2-4 2-1.9 3.3a9.8 9.8 0 0012-1c1.1-1 2-3.5 3-4 1-.6 3.2-.4 4.3-.8a9.5 9.5 0 005.9-5.7c.6-1.5.8-3 .6-4.6l-1.3 1.8a7.5 7.5 0 005.5-7.3c0-4.6-3.7-8-7.1-10.4-1.1-.8-2.7-1.6-3.2-3-.1-.6-.1-3-.3-3.7-.7-2-1.8-4-3.4-5.6-4-4.2-10.2-6.1-15.4-8.5-2.1-1-4 2.3-1.9 3.3zM430.6 339.8a91 91 0 00-12.8-1.5c-2.4-.1-2.4 3.6 0 3.8 4 .1 8 .6 11.8 1.3 2.4.5 3.4-3.2 1-3.6z" fill="#182B84"/><path d="M512.2 114c-1 17.8-1 33.3-2 51-.2 4.6-.2 9.7 3.3 12.8 3.6 3.1 13.5-.5 18-2 15.1-5.4 18.8-6.2 34.2-14.4 5.3-2.8 10.1-5 12-10.3 1.4-3.8 1.4-10.1 1.5-14.1.3-13.5 1.3-27 .4-40.5-.2-3.2.5-7.2-2-9.5-3-2.8-10.2-.8-14.4.2a195 195 0 00-44 15.2c-5 2.4-6.4 7.7-7 11.7" fill="#FDC87A"/><path d="M542.7 158.4l-12.3-38.3c-.4-1.5-.8-3-1-4.6-.1-3.8 3.7-4.5 6.7-6 1-.5 2-1 2.9-.3.5.4.9 1 1.1 1.8 2.2 5.5 4.7 14.8 7 20.4-1.2-3 1.6-11.4 2.1-14.8l2.6-15.8c1.7-10.3 3.4-20.6 5.5-30.8.2-1.9.8-3.7 1.8-5.3 1.7-2.3 4.6-3.2 7.3-4l3.7-1c.6-.3 1.3-.4 1.7.1v1c-4 17.6-6.4 35-10 52.5l-8 39.4a5 5 0 01-2.3 3.3 19.8 19.8 0 01-8 3" fill="#F5855B"/><path d="M516 296c7.3-12.4 5.3-28.3 0-41.6-5.4-13.4-13.7-25.3-19-38.7-2.8-7.2-3.3-17.8-6.4-25a39.6 39.6 0 00-15.1-17.7c-3.5-2-7.8-.3-11.6-1.6-2.1-.8-4.4-1.2-6.7-1.2-3.7.3-6.1-3.2-8 0-2 3.2-5 7.2-5.4 11-.7 6 .8 18.1 1.6 24.2.8 6.7 2.6 13.3 2.2 20-.4 6.1-2.5 12-3.7 18-3.8 19.5 8.6 40.7 24.6 52.5" fill="#F0E4D7"/><path d="M518.2 297.2c11-19.8 1.9-42-7.9-60.3-5.5-10.4-11.1-20.4-13.5-32a51.6 51.6 0 00-12.3-27.7c-2.5-2.7-6-6-9.7-7.2-2.1-.7-4.3-.4-6.5-.5-3.3-.2-6.2-1.3-9.4-1.7-2.3-.3-4.4-1-6.7-1.3a5 5 0 00-3.6.7c-2.8 1.8-5.4 7.5-6.5 10.5-2.9 8-.4 18.6.6 26.8.7 5.1 1.9 10.3 2.3 15.5.6 7.4-1.6 14-3.1 21-4.9 22.3 7.9 44 25.3 57.1 2.6 2 5-2.4 2.5-4.3-14.4-10.9-26.4-29.5-23.6-48.2 1.5-10.2 4.8-18.8 3.5-29.2-1.1-8.4-2.7-16.7-3.3-25.2-.2-3.4-.7-7.4.2-10.8.7-2.3 1.8-4.4 3.2-6.3 2-3 2.4-2 5.5-1.5 2.1.4 4.2.3 6.4.8 1.7.5 3.4.9 5.2 1 2.5.2 5-.3 7.4.8 2.4 1.2 4.9 3.6 6.8 5.6 6.8 7 9 15.4 10.8 24.6a92.3 92.3 0 009.6 25.4c9.9 19 24.4 42.4 12.5 64-1.6 2.7 2.7 5.3 4.3 2.4z" fill="#F0E4D7"/><path d="M477.2 176.8l-7.4-15.9-2.3-4.4-22.8 5.3s.7 2.2 1.1 4.3c1.2 5.6 2.7 11.2 4.7 16.6" fill="#F0E4D7"/><path d="M479.4 175.6c-3.2-6.8-6-13.8-9.7-20.3a2.6 2.6 0 00-2.8-1.2l-22.9 5.3a2.5 2.5 0 00-1.8 3c2.2 7 3.4 14 5.8 21 1.1 3 6 1.7 4.9-1.4-2.5-6.8-3.7-14-5.8-20.9l-1.8 3 22.9-5.2-2.9-1.1c3.7 6.5 6.6 13.5 9.7 20.3 1.4 2.9 5.7.3 4.3-2.5z" fill="#F0E4D7"/><path d="M445.5 246.4c3 10 8.4 20 16.3 26.8 1.8 1.6 4.5-1 2.7-2.6a54.2 54.2 0 01-15.4-25.2c-.7-2.3-4.3-1.3-3.6 1zM467 152.1c-8.2 2.1-16.4 3.7-24.8 4.9-2.3.3-1.3 4 1 3.6 8.3-1.1 16.6-2.7 24.7-4.8 2.3-.6 1.4-4.3-1-3.7z" fill="#182B84"/><path d="M440.4 160a66 66 0 003.1 12.9c.8 2.3 4.5 1.3 3.7-1A66 66 0 01444 159c-.3-2.4-4-1.4-3.6 1z" fill="#182B84"/><path d="M439.4 197.8c12 23.1 6.2 47.7 1.5 72-.4 2.3 3.2 3.3 3.7 1 4.8-25.4 10.6-50.7-2-74.9-1-2.1-4.3-.2-3.2 2zM333.6 169.3c-18.6 10.8-34.8 28.6-37 50.6-.2 2.4 3.5 2.4 3.8 0 2-20.5 17.8-37.3 35.1-47.3 2.1-1.2.2-4.5-1.9-3.3z" fill="#F5855B"/></svg>